<mxfile host="Electron" agent="Mozilla/5.0 (Windows NT 10.0; Win64; x64) AppleWebKit/537.36 (KHTML, like Gecko) draw.io/26.2.2 Chrome/134.0.6998.178 Electron/35.1.2 Safari/537.36" version="26.2.2">
  <diagram name="Page-1" id="jZM6rBrJP1rUpXcCTFco">
    <mxGraphModel dx="3770" dy="1746" grid="1" gridSize="10" guides="1" tooltips="1" connect="1" arrows="1" fold="1" page="1" pageScale="1" pageWidth="827" pageHeight="1169" math="0" shadow="0">
      <root>
        <mxCell id="0" />
        <mxCell id="1" parent="0" />
        <mxCell id="cxreZMtyCxEHCARb_RIm-1" value="2008-10-31&lt;div&gt;bitcoin white paper&lt;/div&gt;&lt;div&gt;- bitcoin blockchain&lt;/div&gt;" style="rounded=0;whiteSpace=wrap;html=1;" parent="1" vertex="1">
          <mxGeometry x="170" y="100" width="120" height="60" as="geometry" />
        </mxCell>
        <mxCell id="cxreZMtyCxEHCARb_RIm-2" value="2013-12&lt;div&gt;Ethereum&lt;/div&gt;&lt;div&gt;- smart contracts&lt;/div&gt;" style="rounded=0;whiteSpace=wrap;html=1;" parent="1" vertex="1">
          <mxGeometry x="170" y="170" width="120" height="60" as="geometry" />
        </mxCell>
        <mxCell id="cxreZMtyCxEHCARb_RIm-3" value="&lt;h1 style=&quot;margin-top: 0px;&quot;&gt;GOAL&lt;/h1&gt;&lt;p&gt;build webapps with Ethereum&lt;/p&gt;" style="text;html=1;whiteSpace=wrap;overflow=hidden;rounded=0;" parent="1" vertex="1">
          <mxGeometry x="170" y="240" width="180" height="80" as="geometry" />
        </mxCell>
        <mxCell id="cxreZMtyCxEHCARb_RIm-4" value="&lt;h1 style=&quot;margin-top: 0px;&quot;&gt;&lt;span style=&quot;background-color: transparent; color: light-dark(rgb(0, 0, 0), rgb(255, 255, 255));&quot;&gt;Ethereum&lt;/span&gt;&lt;/h1&gt;&lt;h1 style=&quot;margin-top: 0px;&quot;&gt;&lt;span style=&quot;background-color: transparent; color: light-dark(rgb(0, 0, 0), rgb(255, 255, 255)); font-size: 12px; font-weight: normal;&quot;&gt;Ethereum networks used to transfer money and store data&lt;/span&gt;&lt;/h1&gt;&lt;div&gt;Network is formed by 1 or more nodes&lt;/div&gt;&lt;div&gt;&lt;br&gt;&lt;/div&gt;&lt;div&gt;node is a machine running ethereum client&lt;/div&gt;&lt;div&gt;&lt;br&gt;&lt;/div&gt;&lt;div&gt;anyone can run a node&lt;/div&gt;&lt;div&gt;&lt;br&gt;&lt;/div&gt;&lt;div&gt;each node can contain a full copy of the blockchain&lt;/div&gt;&lt;div&gt;&lt;br&gt;&lt;/div&gt;&lt;div&gt;blockchain is a database that stores a record of every transaction ever taken place&lt;/div&gt;&lt;div&gt;&lt;br&gt;&lt;/div&gt;&lt;div&gt;&lt;br&gt;&lt;/div&gt;" style="text;html=1;whiteSpace=wrap;overflow=hidden;rounded=0;" parent="1" vertex="1">
          <mxGeometry x="170" y="320" width="320" height="250" as="geometry" />
        </mxCell>
        <mxCell id="cxreZMtyCxEHCARb_RIm-10" value="" style="edgeStyle=orthogonalEdgeStyle;rounded=0;orthogonalLoop=1;jettySize=auto;html=1;" parent="1" source="cxreZMtyCxEHCARb_RIm-5" target="cxreZMtyCxEHCARb_RIm-6" edge="1">
          <mxGeometry relative="1" as="geometry">
            <Array as="points">
              <mxPoint x="330" y="663" />
              <mxPoint x="330" y="663" />
            </Array>
          </mxGeometry>
        </mxCell>
        <mxCell id="cxreZMtyCxEHCARb_RIm-5" value="FOR &lt;b&gt;DEVELOPERS&lt;/b&gt;&lt;br&gt;web3.js" style="rounded=0;whiteSpace=wrap;html=1;" parent="1" vertex="1">
          <mxGeometry x="160" y="622.5" width="140" height="80" as="geometry" />
        </mxCell>
        <mxCell id="cxreZMtyCxEHCARb_RIm-6" value="ETHEREUM NETWORK" style="rounded=0;whiteSpace=wrap;html=1;" parent="1" vertex="1">
          <mxGeometry x="350" y="622.5" width="220" height="155" as="geometry" />
        </mxCell>
        <mxCell id="cxreZMtyCxEHCARb_RIm-11" value="" style="edgeStyle=orthogonalEdgeStyle;rounded=0;orthogonalLoop=1;jettySize=auto;html=1;" parent="1" source="cxreZMtyCxEHCARb_RIm-8" target="cxreZMtyCxEHCARb_RIm-6" edge="1">
          <mxGeometry relative="1" as="geometry">
            <Array as="points">
              <mxPoint x="340" y="750" />
              <mxPoint x="340" y="750" />
            </Array>
          </mxGeometry>
        </mxCell>
        <mxCell id="cxreZMtyCxEHCARb_RIm-8" value="FOR &lt;b&gt;CONSUMERS&lt;/b&gt;&lt;div&gt;Metamask (chrome extension)&lt;/div&gt;&lt;div&gt;&lt;br&gt;&lt;/div&gt;&lt;div&gt;&lt;a target=&quot;_blank&quot; rel=&quot;noopener noreferrer&quot; href=&quot;https://metamask.io/download/&quot; style=&quot;box-sizing: border-box; margin: 0px; padding: 0px; color: rgb(109, 40, 210); text-decoration-color: rgb(175, 114, 253); text-underline-offset: 0.4rem; font-family: &amp;quot;Udemy Sans&amp;quot;, &amp;quot;SF Pro Text&amp;quot;, -apple-system, BlinkMacSystemFont, Roboto, &amp;quot;Segoe UI&amp;quot;, Helvetica, Arial, sans-serif, &amp;quot;Apple Color Emoji&amp;quot;, &amp;quot;Segoe UI Emoji&amp;quot;, &amp;quot;Segoe UI Symbol&amp;quot;; font-size: 18px; background-color: rgb(255, 255, 255);&quot;&gt;https://metamask.io/download/&lt;/a&gt;&lt;/div&gt;&lt;div&gt;&lt;br&gt;&lt;/div&gt;&lt;div&gt;&lt;div&gt;login details just for device (browser extension)&lt;/div&gt;&lt;div&gt;&lt;br&gt;&lt;/div&gt;&lt;div&gt;12-word secret:&lt;/div&gt;&lt;div&gt;month wheel scale wedding adapt upper small slogan diamond task omit they&lt;/div&gt;&lt;/div&gt;&lt;div&gt;&lt;br&gt;&lt;/div&gt;&lt;div&gt;Select a network -&amp;gt; show test networks -&amp;gt; &lt;b&gt;Sepolia&lt;/b&gt;&lt;/div&gt;" style="rounded=0;whiteSpace=wrap;html=1;align=left;" parent="1" vertex="1">
          <mxGeometry x="10" y="710" width="290" height="220" as="geometry" />
        </mxCell>
        <mxCell id="cxreZMtyCxEHCARb_RIm-13" value="Metamask account creates&lt;div&gt;&lt;br&gt;&lt;/div&gt;&lt;div&gt;1. account address&lt;/div&gt;&lt;div&gt;&lt;span style=&quot;background-color: transparent; color: light-dark(rgb(0, 0, 0), rgb(255, 255, 255));&quot;&gt;2. public key&lt;/span&gt;&lt;/div&gt;&lt;div style=&quot;&quot;&gt;3. private key&lt;/div&gt;" style="rounded=0;whiteSpace=wrap;html=1;align=left;" parent="1" vertex="1">
          <mxGeometry x="110" y="930" width="190" height="110" as="geometry" />
        </mxCell>
        <mxCell id="cxreZMtyCxEHCARb_RIm-14" value="&lt;br&gt;&lt;span style=&quot;color: rgb(42, 43, 63); font-family: &amp;quot;Udemy Sans&amp;quot;, &amp;quot;SF Pro Text&amp;quot;, -apple-system, BlinkMacSystemFont, Roboto, &amp;quot;Segoe UI&amp;quot;, Helvetica, Arial, sans-serif, &amp;quot;Apple Color Emoji&amp;quot;, &amp;quot;Segoe UI Emoji&amp;quot;, &amp;quot;Segoe UI Symbol&amp;quot;; font-size: 18px; font-style: normal; font-variant-ligatures: normal; font-variant-caps: normal; font-weight: 400; letter-spacing: normal; orphans: 2; text-align: start; text-indent: 0px; text-transform: none; widows: 2; word-spacing: 0px; -webkit-text-stroke-width: 0px; white-space: normal; background-color: rgb(255, 255, 255); text-decoration-thickness: initial; text-decoration-style: initial; text-decoration-color: initial; display: inline !important; float: none;&quot;&gt;Sepolia faucet to obtain test ether&lt;/span&gt;&lt;br&gt;https://cloud.google.com/application/web3/faucet/ethereum/sepolia&lt;div&gt;&lt;br&gt;&lt;/div&gt;" style="rounded=0;whiteSpace=wrap;html=1;" parent="1" vertex="1">
          <mxGeometry x="30" y="1040" width="370" height="60" as="geometry" />
        </mxCell>
        <mxCell id="cxreZMtyCxEHCARb_RIm-15" value="A &lt;b&gt;TRANSACTION &lt;/b&gt;- record of one account attempt to send money to another account&lt;br&gt;&lt;br&gt;&lt;div&gt;&lt;b&gt;nonce &lt;/b&gt;- times sender has sent a transaction&lt;/div&gt;&lt;div&gt;&lt;b&gt;to &lt;/b&gt;- address of account money is going to&lt;/div&gt;&lt;div&gt;&lt;b&gt;value &lt;/b&gt;- amount of ether to send to the target address&lt;/div&gt;&lt;div&gt;&lt;b&gt;gasPrice &lt;/b&gt;- amount of ether sender is willing to pay per unit gas to get transaction processed&lt;/div&gt;&lt;div&gt;&lt;b&gt;startGas/gasLimit&lt;/b&gt;- units of gas this transaction can consume&lt;/div&gt;&lt;div&gt;&lt;b&gt;v, r, s&lt;/b&gt; - cryptographic pieces of data that can be used to generate the senders account address. generated from the sender&#39;s private key.&lt;/div&gt;&lt;div&gt;&lt;br&gt;&lt;/div&gt;" style="rounded=0;whiteSpace=wrap;html=1;align=left;" parent="1" vertex="1">
          <mxGeometry x="-50" y="1100" width="460" height="180" as="geometry" />
        </mxCell>
        <mxCell id="cxreZMtyCxEHCARb_RIm-18" value="transactions get assembled into a block for validation (mining)" style="rounded=0;whiteSpace=wrap;html=1;" parent="1" vertex="1">
          <mxGeometry x="95" y="1280" width="265" height="60" as="geometry" />
        </mxCell>
        <mxCell id="cxreZMtyCxEHCARb_RIm-19" value="block time - time to find a solution&lt;div&gt;etherscan.io/chart/blocktime&lt;/div&gt;" style="rounded=0;whiteSpace=wrap;html=1;" parent="1" vertex="1">
          <mxGeometry x="95" y="1340" width="265" height="70" as="geometry" />
        </mxCell>
        <mxCell id="cxreZMtyCxEHCARb_RIm-23" value="" style="group" parent="1" vertex="1" connectable="0">
          <mxGeometry x="-60" y="1430" width="440" height="170" as="geometry" />
        </mxCell>
        <mxCell id="cxreZMtyCxEHCARb_RIm-24" value="" style="group" parent="cxreZMtyCxEHCARb_RIm-23" vertex="1" connectable="0">
          <mxGeometry width="440" height="170" as="geometry" />
        </mxCell>
        <mxCell id="cxreZMtyCxEHCARb_RIm-22" value="" style="rounded=0;whiteSpace=wrap;html=1;" parent="cxreZMtyCxEHCARb_RIm-24" vertex="1">
          <mxGeometry width="430" height="170" as="geometry" />
        </mxCell>
        <mxCell id="cxreZMtyCxEHCARb_RIm-21" value="&lt;h1 style=&quot;margin-top: 0px;&quot;&gt;Smart contracts - Contract account&lt;/h1&gt;&lt;p&gt;contract accounts are specific to a network eg. Rinkeby&lt;/p&gt;&lt;p&gt;&lt;b&gt;balance &lt;/b&gt;- amount of ether this account owns&lt;/p&gt;&lt;p&gt;&lt;b&gt;storage &lt;/b&gt;- data storage for this contract&lt;/p&gt;&lt;p&gt;&lt;b&gt;code &lt;/b&gt;- raw machine code for this contract&lt;/p&gt;" style="text;html=1;whiteSpace=wrap;overflow=hidden;rounded=0;" parent="cxreZMtyCxEHCARb_RIm-24" vertex="1">
          <mxGeometry x="15" y="10" width="425" height="160" as="geometry" />
        </mxCell>
        <mxCell id="cxreZMtyCxEHCARb_RIm-28" value="" style="group" parent="1" vertex="1" connectable="0">
          <mxGeometry x="-10" y="940" width="120" height="60" as="geometry" />
        </mxCell>
        <mxCell id="cxreZMtyCxEHCARb_RIm-26" value="" style="rounded=0;whiteSpace=wrap;html=1;" parent="cxreZMtyCxEHCARb_RIm-28" vertex="1">
          <mxGeometry width="120" height="60" as="geometry" />
        </mxCell>
        <mxCell id="cxreZMtyCxEHCARb_RIm-25" value="&lt;b&gt;EXTERNAL ACCOUNT&lt;/b&gt;" style="text;html=1;align=center;verticalAlign=middle;whiteSpace=wrap;rounded=0;" parent="cxreZMtyCxEHCARb_RIm-28" vertex="1">
          <mxGeometry x="10" y="15" width="110" height="30" as="geometry" />
        </mxCell>
        <mxCell id="cxreZMtyCxEHCARb_RIm-29" value="contract code -&amp;gt; &lt;b&gt;deploy instances &lt;/b&gt;of contract" style="rounded=0;whiteSpace=wrap;html=1;" parent="1" vertex="1">
          <mxGeometry x="50" y="1600" width="280" height="70" as="geometry" />
        </mxCell>
        <mxCell id="cxreZMtyCxEHCARb_RIm-34" value="" style="edgeStyle=orthogonalEdgeStyle;rounded=0;orthogonalLoop=1;jettySize=auto;html=1;" parent="1" source="cxreZMtyCxEHCARb_RIm-31" target="cxreZMtyCxEHCARb_RIm-32" edge="1">
          <mxGeometry relative="1" as="geometry" />
        </mxCell>
        <mxCell id="cxreZMtyCxEHCARb_RIm-31" value="&lt;b&gt;Solidity&lt;/b&gt;&lt;div&gt;.sol&lt;/div&gt;&lt;div&gt;&lt;br&gt;&lt;/div&gt;&lt;div&gt;strongly typed&lt;/div&gt;&lt;div&gt;contract definition&lt;/div&gt;&lt;div&gt;&lt;br&gt;&lt;/div&gt;" style="rounded=0;whiteSpace=wrap;html=1;" parent="1" vertex="1">
          <mxGeometry x="390" y="1430" width="190" height="120" as="geometry" />
        </mxCell>
        <mxCell id="cxreZMtyCxEHCARb_RIm-36" style="edgeStyle=orthogonalEdgeStyle;rounded=0;orthogonalLoop=1;jettySize=auto;html=1;entryX=0;entryY=0.5;entryDx=0;entryDy=0;" parent="1" source="cxreZMtyCxEHCARb_RIm-32" target="cxreZMtyCxEHCARb_RIm-35" edge="1">
          <mxGeometry relative="1" as="geometry" />
        </mxCell>
        <mxCell id="cxreZMtyCxEHCARb_RIm-38" style="edgeStyle=orthogonalEdgeStyle;rounded=0;orthogonalLoop=1;jettySize=auto;html=1;entryX=0;entryY=0.5;entryDx=0;entryDy=0;" parent="1" source="cxreZMtyCxEHCARb_RIm-32" target="cxreZMtyCxEHCARb_RIm-37" edge="1">
          <mxGeometry relative="1" as="geometry" />
        </mxCell>
        <mxCell id="cxreZMtyCxEHCARb_RIm-32" value="solidity compiler" style="rounded=0;whiteSpace=wrap;html=1;" parent="1" vertex="1">
          <mxGeometry x="620" y="1460" width="120" height="60" as="geometry" />
        </mxCell>
        <mxCell id="cxreZMtyCxEHCARb_RIm-35" value="byte code (deployment code to ethereum network)" style="rounded=0;whiteSpace=wrap;html=1;" parent="1" vertex="1">
          <mxGeometry x="780" y="1430" width="120" height="60" as="geometry" />
        </mxCell>
        <mxCell id="cxreZMtyCxEHCARb_RIm-37" value="Application Binary Interface (&lt;b&gt;ABI&lt;/b&gt;)&lt;div&gt;&lt;br&gt;&lt;/div&gt;&lt;div&gt;what we use to interact with bytecode (contract)&lt;/div&gt;" style="rounded=0;whiteSpace=wrap;html=1;" parent="1" vertex="1">
          <mxGeometry x="780" y="1510" width="180" height="90" as="geometry" />
        </mxCell>
        <mxCell id="mStgi796N8Yy1ZGupUuF-1" value="" style="group" parent="1" vertex="1" connectable="0">
          <mxGeometry x="-260" y="1719" width="770" height="261" as="geometry" />
        </mxCell>
        <mxCell id="cxreZMtyCxEHCARb_RIm-42" value="" style="rounded=0;whiteSpace=wrap;html=1;" parent="mStgi796N8Yy1ZGupUuF-1" vertex="1">
          <mxGeometry width="770" height="260" as="geometry" />
        </mxCell>
        <UserObject label="&lt;a target=&quot;_blank&quot; rel=&quot;noopener noreferrer&quot; href=&quot;https://remix.ethereum.org/&quot; style=&quot;box-sizing: border-box; margin: 0px; padding: 0px; color: rgb(82, 30, 159); text-decoration: underline rgb(175, 114, 253); text-underline-offset: 0.4rem; font-family: &amp;quot;Udemy Sans&amp;quot;, &amp;quot;SF Pro Text&amp;quot;, -apple-system, BlinkMacSystemFont, Roboto, &amp;quot;Segoe UI&amp;quot;, Helvetica, Arial, sans-serif, &amp;quot;Apple Color Emoji&amp;quot;, &amp;quot;Segoe UI Emoji&amp;quot;, &amp;quot;Segoe UI Symbol&amp;quot;; font-size: 18px; font-style: normal; font-variant-ligatures: normal; font-variant-caps: normal; font-weight: 400; letter-spacing: normal; orphans: 2; text-align: left; text-indent: 0px; text-transform: none; widows: 2; word-spacing: 0px; -webkit-text-stroke-width: 0px; white-space: normal; background-color: rgb(255, 255, 255);&quot;&gt;https://remix.ethereum.org/&lt;/a&gt;" link="&lt;a target=&quot;_blank&quot; rel=&quot;noopener noreferrer&quot; href=&quot;https://remix.ethereum.org/&quot; style=&quot;box-sizing: border-box; margin: 0px; padding: 0px; color: rgb(82, 30, 159); text-decoration: underline rgb(175, 114, 253); text-underline-offset: 0.4rem; font-family: &amp;quot;Udemy Sans&amp;quot;, &amp;quot;SF Pro Text&amp;quot;, -apple-system, BlinkMacSystemFont, Roboto, &amp;quot;Segoe UI&amp;quot;, Helvetica, Arial, sans-serif, &amp;quot;Apple Color Emoji&amp;quot;, &amp;quot;Segoe UI Emoji&amp;quot;, &amp;quot;Segoe UI Symbol&amp;quot;; font-size: 18px; font-style: normal; font-variant-ligatures: normal; font-variant-caps: normal; font-weight: 400; letter-spacing: normal; orphans: 2; text-align: left; text-indent: 0px; text-transform: none; widows: 2; word-spacing: 0px; -webkit-text-stroke-width: 0px; white-space: normal; background-color: rgb(255, 255, 255);&quot;&gt;https://remix.ethereum.org/&lt;/a&gt;" id="cxreZMtyCxEHCARb_RIm-39">
          <mxCell style="text;whiteSpace=wrap;html=1;" parent="mStgi796N8Yy1ZGupUuF-1" vertex="1">
            <mxGeometry x="250" y="46" width="250" height="50" as="geometry" />
          </mxCell>
        </UserObject>
        <mxCell id="cxreZMtyCxEHCARb_RIm-40" value="&lt;h1 style=&quot;margin-top: 0px;&quot;&gt;Remix&lt;/h1&gt;&lt;p&gt;&lt;br&gt;&lt;/p&gt;" style="text;html=1;whiteSpace=wrap;overflow=hidden;rounded=0;" parent="mStgi796N8Yy1ZGupUuF-1" vertex="1">
          <mxGeometry x="251" y="11" width="220" height="39" as="geometry" />
        </mxCell>
        <mxCell id="cxreZMtyCxEHCARb_RIm-44" value="" style="shape=image;verticalLabelPosition=bottom;labelBackgroundColor=default;verticalAlign=top;aspect=fixed;imageAspect=0;image=data:image/jpeg,UklGRmY9AABXRUJQVlA4TFk9AAAvxkJZAFWLgrZtpIQ/7O2+3gBExAQwq8sMo/ylBZyem9fY9ykPj5jb9oYbbrLvLrddEquQBGAfRGYxn9ywodUF//+6u3GTpAyXzGwvGWVcySTJHDOutGZbZrasNXuZ0TIseJmZmZmZmRnLDP//D/7///Po6DxPIYxl7tZhZlw84Tyzo3OxIGdGpVPm1p5qm/HyhhOdch3GZ/qUWzmMmglqZj1VUcVw4hlPGTS1ZkLHYfcuqotK0fHFwimEOZ6GFrRl3GnwXNhb5lpl5jacaOGuzG0YPVD0ZRVOFGZY0vLuKT7lyoVwNI22PS5eBT2aDZzyknZG2sy3jFKZPbNQWg5fleswu7zPgjw7DpaZn/LvRqUw+iojLU4DKrcKerSdaOydSoWrhStmz7hcjWfCYG8DtqdMmjKoYBU849kG1Atpr7rfWetChV9hdzaMd2VUONFsHZdBhb1qx4pt27JtRYPMUQOKQOXyKuDAIXHvK3CgwH2JyokIiUKG42d3zU4xsiVFkpTMFJGRkZnVs8ygvy6rxtkJ0H9akCSJSq1sz0WOgMMGB5fdg/J8ftmR/2+ZLWUxj7z2XNIpQtv/os7z7+73SPd7+iFzJ7oR2ik6LmvA3W0D7hpNEb0bwJ4avRl1aiI0crfm7ILIGneIrLHxmQy3nMg10+hGuLtmnrrbAohHTh1sJL0Z7u7aRTTRiXCHUydiAeQ2sgq3xp3Mxt0j3OFmN8I1cm/cHfYwEXJwhwXY6IlwIlagPRPh0HUjohPhDl03mi0QN84GrJl6atx9VkBkMZlGRLeQIAAA2UZNbXe2bdu2bdu2bduqOdu2/nJwIEmSEuEstgL/f9jN4M654dZ/WZAkuWqUwwbPv3NPgNawK+5rZJtmmrBv4L8+V9PaloPx38H472D8dzD+U4X8Z1f78/uann9MW8f3nyM8+54wYT3ffUubNlVFf19rLXeq7xvxq98tfvGXk4Rpf5clC0F9LOsgPEdA4EDK+HdV+eu7pr7+lVdb8qQt5/9sqUKgABuYZCsnmQNWcBDEDwBGgkJbtWzVinmpKS4VmVCu2n76nCevjizNbdbKA7XWa9NHDLUoLXw/yy4NRuFCgFFo1ejPzdTYGlERmOKRuZq+A/0BMtphEwOhRbW/q7U9Ac/EPBoy+h2TiXcEeTmJH+HpR6Pf/OQV8n3jmasW5QWkX0jihSaUPJ/kgqlp5sqBLM/dHIO0qNQLTggl/gtPtSb70io1/J3PM8mzlKTTGdpQzSnjJPMCk0tMzT0zlfxWygaSV+hoyk4NWXTa6Xz+iQoB28JSTucSUjwjNiOLi086hRDO50nOhx5/0Vd/a8Tmakx1OmeYU0UuOekkX0xqzpmWZMqssk7nOEuqsZScztkzBOYVYGcaeaJGOv5LTs47PfHCSKEZQkhBSn/0AekvuC7di3DA0YKfC9cGTWnLNZWK/n5Yl9NNqmL0Xb67WKp6v/3Cupiw/3uZpYAZ5wQj/m0VafXWkgtGnuCOKe9HiOQ8/kKEMVQLSgtmSlyx5BQ65pLQkOnmSghRhGnKeSFEQypH67K/YOQH16Hpbg0RXuNZXEqIWTGqSfKCnUWnli2pNrpGqqjYHO9HcDKDHL89xQtIjkM0OwjsYw+ZnqPLg7JSLOf4t9LNCXpMR9faer/9UtUvr1z8mvxG+cOXiF/+Yaw0Py9/sSkhhP/jzCI7S3aR1EBCSfYUhLFJxB3wKW5hDtlTJAq4LkNc+KpXvepFpC7cKYjqa6mz1aytmswTCPH8k1QJY5IiVoQQU84zNFwVQkyBl2xT54QQwrmk1HubW+YHE9dk6nm9rSEWmuZ444Il+bBqPuAP9hdCpCsL6OcclpXXSXoEooj5p09xIKHkhs0NVrYJN6VfwNF7xH7n1/xbNVtgPuI1+s2PvKStan0IGa+m5x+od/K4zU6vQojJFEqBRAmVGwtMC1EipWpjQslECpLIpHihpAbdCNcoiVQEWilfuBDCP1SgqdAVCzHHrKTzL4QQe6CkSCfEqiVbG6IQwknd545KeX4JIbagtzWEaFBly6TibiHH8qROIeLo97yTkhnSn5JUfqW6+Rc2L/ciAzf6CjyFScUXkZnyb/Vg8+GmHlJGePqhZxwk3lbpU5mZEZtOIU5ZMm4hySebJ/o3yYRIV48qqTSgplPuCg1DVH0bTiGG1c83uxDpUjBupAONHLDZ/IVI1hWjbf6F8yfqbQ0h1sLuBwlNpBx3SQgRx6RkdQ2lPRtRzQqC+SR5orfIE/0Bslwu0t+3rLdtQhqXbooxtpVh0i5taYpUEZ59T/uPGFtUrghPP8h3/MwG47YXIBkpGRI1XKMQIqIsGTk3IcRWjCTlpxBCvHHdZMVGCSE+IGFiBSFEE4pkW5kQoiP2Rq63NdQ0q7BcuFYyuRBnaFpyWCEmLJjV58IWOj0KYxw9CbG5vkcVELTjYd38AhKbxjDk4o5npyQk6lC6LfGJT8vov2yVejMrZyrEWUl+litEdm7nYL4ZY8klpIS4T/3k/oQQH47qo+xSsgX4C/GVjW0NfyEyMXxoIdJptGohrtHEppUTYhPmBEu6dCWnH8ATfQYSuyAsV4FBUO34KehccpBJuMml9h8/2Rmhuud2P7IAxhcHupBhzMkdCyHKgVxlQCFEk1W2litCOI/FWHVrQogj0U9+bSHExmRp4RMIUcSXI5IihDNUIA1tjfmll5wUYs90L+k+hWhH1GgtQuzdxGadFWKXZgShBal/0yfgiX4C6XogMaqUcoKZePHJu3bqM0Z49j0eLW+818uwtITkRbu7JC/MjIwUOpWu7TnxDCKECGBbsxBiYwbg1nNtBgh4BCGeoLRwHhkhSnQvOVYsxKNIKY1pDcofE+LCKVcsROxBtLntEiY/4ptMiDFK5iOBgw96hWAjyk6wmlUWKExgtyKrghGd9i7GFL4vuTC6Na83Hu375qUtTTlfWubb641nRmebXk4I4ZwxG77O9qeESKdhK9m+wX6wEG0XDSDfmb8QZ0X0p3l+sxAnRjCiNShykZQQn4LcSJIL0ZFG0+GEcPqa1ssUwtm9+cDahApj+g0cvUbsKiO4UM6gJ+ZH0+Ylt428vAyzNOZYtR9Zgxm57a9NzijEPotg2ikLkZ0nmRBdG2x+aSHO2Ahy+0LNoJKrDyFmlmXQ2xq0lQpxVgGqCQlC5JSadBVbCDGTnNRN+DOSjDIR4fbVdDTIgTIRg+pmA5MoHW/oG/DUJcnrEYEr5QgzucipFnaPOy9/r6Q89Fg2c3vzM6dJ8EGSCzKPMgU+DmG6nBD3xvMbhZg8b7BZssrYsCHk5SpuypcvuxCTy7Ppag0KscG2W1THUgZSu/PHxOK8cDVn5RRKMt22obOH6UicDHrbZgMhxLTmxVOKTDU3V4Edb1038cgTdZlXczifcwRiEzOrfTl8jyknteIJiNmx29Bwf/soQoxPMNgVCnFPxrhtpxBDSE3/zDTLob817k3KroQYKA7xtWL6OcnEzq6ySQNmD+eXZmRQDX7jt5VmkzLspNDT0OVWiPXNkEMolldFD0lfj2bUnIzdztzK/MxtB9GOuh7WXyiZhKA4eSGSm3x1JiE2awxZQoiONDgMIR6HR0drMMg5MELchlxzCeF/JFI2VWXx/1hE/tsmPhxx/Uyxen7pFa94xZu4KX8hkr9SaT6wvEMZKcj8po+AQ3aEEirA44xMb5W4tCp/fRfPnksHaoMplkotMRXRw4lnfvs5BzypUwhnMHEfKnxNfbYSQuzBlN6TED+YS3trsAQ7RYnSQmXXpp4kR2zJielOciyxhSgRbDb2Trru9AV4SneDKEwFerxDctA6z9KG2aou8d1HEJ8aqiY67TU9/2COu+vXqAshDlPKc1K8Urb9CeGMY6z3I4Q4J1PavhBO7iC6vtagvmZ8JCHO2F8MNFJopuRtX7gQC0mbzRNNTkFvEJyLrudzqg78qO41Yzt4vXmNSp549GPQ+ObzrBPerN+U8uQ0WxFOOcbPHq5FiLOSpnTb/kJcruREe2swHQnRG/tOUtGMYn7ITVKYyapqbGzQ/SjG0fMQ22gNVUAzLo+BiBG9LskNwoCwL5zYj99tjrKTN78D8XauuHzj9+XYihDiukxK/hshnMEc+lqDHt2+O8VZBZgh5oDM4pPm4QF0vkzzFMEpM8JxFUhM1DNWd8w77ET2ADQwNpAfY3uIb6C8ueiCr8dMZg/P6p6yMQwhhBiE+sJ9VkPQoiUX4hR9DXUgf/UGbVpVNJxCPMLts3bVG6h7za3BESedECcvVX/MPK1UCHFd5uAipPLbNk/0C8jAFYlTFUhMyKu8luRklBigppGBRqB3zMjVpVEYdRJHzcOkC0IM9JCUa0tH337q0oQQznGVSJt1Gryfc8q7zK4WbTMx+TuFEP6XT6qvlkyImWc1twaHvOG7+3DSjBFD4s8r6WsGTzQh3ie9RJej/BhrkrLAoU4MMBZXalB1bAjmcXL2pRvDdFnMzjpqFm5DCCH8M80r/TIfOGcmIYRzf5LIrRATD8u93Mtd9UBqNaOTWY8Yh2Xl9jmSqaXcVDpyAucMpanJeyKmNH/jyjZBPhnmBrS2BgsvEWXD+A/LyGyzZLPOLsPKHjTs56zUdY2mNyzlJSmO3iH2klahAofKYwCoEQfw1YwNkStVhGffqf7LCFT3vBujFmqTSUU90Ex4BG6Tr66usdA0c2LhUV6hpHKXAzHn0TamcXpNfFvNzwF0PqmvND35kE7m0/2OSWtrmB47JbQ/B/BPcXa/TncspoYJlAxfYUUTUvpDJKYCiJE02/KApjTWMQR7FJpKhKcfBp2b3qmU+U1g3CY/yf6G/cH+qrPqYwr8sbCfEP2xSI8wdum2pVZnzXJvjFv6g97AZm9fSu02wZdOO1k2+DSpyc3ks00xfyz6W2NYrlcqxKmr/omR0hnC5hTiik0MwX2SMZaAzG+yUGEZRwWUqHI0EVeTng2mbhDXk9DIk+RJmNCuhF2J2xzOFhJs56oKa5kc7+gu9/ATfWWUnNuuyrjLqyoNehytYSaf64b0OATnokfhtRMqsER7nX0YDUZlG4w8t8Fxc79mJLSgvlsRlnZ3RT+BJ/oEJHJFGKECTowYhUQPzUv5ljRevLzG4PV/3JztyWKCMJw0v+KgoglpeyIaVU4RnP2MihmKnm7kTJcXs5QkcPhOrxFkfhNmhlXs6sKDnjiFWEqwnkm3oxT3ceyo1FPOY6vqDLjhtso3jIUEkymdrsM8ZUjWcC/lUOzDbDW+gbrc6jDxVBbYka+Ron8lyPwmYy2S8JQTcdMD0CMYgPW9MiwzCPCJq/Rnl6M7EdY1Q04m3hEYdpiwmMUGK9kPLeIqccCJUEI5mLR5jPz40nLZLbILmhbpvcGKJqT6U0s5k7zkDkYGJxef3QLSkCTOsLXD/byr2lnw7sFHMBBjx1BOIRaQamyu04MoxtXFltoelVNRn5yaygSXVYxtBAsIFvfISglbO8SJy96VY9mqIpcJ5sBTsaWyfLRAat+wtUPSc3+Aci55jP0A4zmDCTmntHgkiP/+cbAR5SZY3SpzHNypPz/Dj+fifcTigTUJFcQpbonETVqFcjIjEN9uy+hz98Tp3Fg8tvlI2NohKfwjIlPOg789DGPcqvip+DtGd2O3dFyF5PSwtUM6XWEpVzmQLrm9E7s9VyojVsS/HrL77cf5uKWjDNur/4txX8VGRsKJuLvkHdArDFljt8fLw1ln6Vgk3cpgRRMctregnIjd3Q3vyU+sFbrX8D7e5TB2S8feSfsjDjK/SdMLUZlyJMReod1QP5K69h8/xbPbOSs0rmG5nghPP8jV3YzgF89u6dgjjt5ga4d0M9titUPhptgRhPxn81ZoXpMrVSrL6gUwVGNDg+5GMY5eILZTGyrnQz1ajM9foWnN6827VbtlBVO9x8OKJiRtvJdyQvSoh4YV/DV5lcWy8jVS9qUPACqakOEOSVDlWDS+8Vbw1xCLZSW0/TKXq4m1Sci5aH2jVuTSsoZaLCzdU04Cu7dAvI+vKcfEnU15valysdcwFgvLvcjAFbZ2SMq/iMSUg9H+xl5BrmEuFhYE83HaPDzI/KaL5UmVw9Kwh1187h51QZZqbKU9JsbVxmZ6wtEY88Zdgi2boas5yPyO45gVYbgzd2PPT8cSbBmJNL5gRRPS8ZiBU/fG0E/zEmxJkOANtnb4UKxqISBw7E5F+mlcgi5Yh1BRDLu3gJ2Veg7exVM/TUvQBZPoSmBFE5LT79TReyrrp2GxuKyCFPxhRRM60dzc4Tvc68ddLC5lU9Cz0OWufMKQ0/cb2Y+zWF7m5NG9BRx0XEQ5Pbsfc7G8TIt23WBrh+v/jHJ+dj/GYnnZI4mbYUUTupbPqbowwO5HLZaX6mt7dG8BW2t7VIUCdj9iscAgcTo47N4CSZqmpQoJ7H7KYoG5CKn6wO4tkP7brlWhgb2Y3QITwr7nsl2O8hOsYSEgELvjDemotRQ3PPaUVqGErm3S4RZmfpPiHyIx9D8QuuqRzAF2b4HOVb9TQlcZtlVrxzh6GGJjIyF2YRmXbmSwtUMSsY6khC6E4aTlCbu3cENEpUro2iOO2GBFE0pPR6kWu044copbNnZQGyqha9N0poKtHeLM8V5K6EJIQUp+sHsLZLT7hxK6QthdhoNqottxLyGxa5Ri2Noh9j+/poSue5G+G2zt8Bi1lNDVkCRNw4NzkZVykQgUCF3VC54ZHFTTgveohC4s4dKVAnZvgcTNe1dCVwuk7g1bOyTd9wcooStBAvaPg40aDIuAQOzCWqQm7N5CzqCahC5MpB6DaiL5/+8ooWsVJLeHrR2S6ebmSugqu01d2L2FQRNiF5J3CSODFU1IyNaCEroQlpOOB2zt8M2IypRg5SuTe48vg60dks0cK9rVohWWd2qVeb2W2l8h7N7CshoqEeA5gnIKdaSbTkRKsPPqQ5Wei+lxHZbMfvENvcA0z2NQTSR1nJYSAZ6tdpDJg0hoyLNmPCwYwfcQo0sFttWm5fHM5SJXg60dkqHrrpUQ8EzziZ5ZImSClzITiQ4y8RwMD+tbw9XOeepC4uffhUBFE+J1lrncIdo8nBjwDLOJ4i8pwU2iRM9G86hgd5m306l9XkjnY6mryFm4+IoiMKimTXxNBQlKRnXgcbjj90zE045n9G5DnRFtkkJYzW73HDRhr8SjdSvbIrXQadOt2GJpqZumbCRlqDgNkXHvtObUOX5upmo8buTdkSApR7mVpsFthuRp6DQ0VsqmimzFeQpdRpXwQO2xxOVRQTzOWggIEJ5vH1Y0IWU/RGIqSFDhqF0PADgAIEk1WFUCqDKyl4RU43LBiyG0BdCPlIMBnfG7N6AAKBNJ2T+07jD0D3QOUS2bTlue89NvHIlEzz6x6ISHp7k44FaSvL57kjHA1g7pQnlSFSQo13LAhDy1b52OLHWzamvcLozPlVImB1hXP5ll+ZtNOQBjdklQOaKN06XElEpKQzXFheBHaPVRJRVVbbGU0jfEqI52VjhE/RpOJEq04ISHZydpyI2R1XJesHsL2FRPBAsKQju7wdRvDqV6S8pgB7TYkURuGuApSG24lCpGQKM2PIAbMAaRrwa2qAEMEw+LuV7Cs3sLQYKjBKgilqzEAFscSSY7FCRBdSNSB1wyMVQbG8gXIDgqYJTavlI5bbsjGlXBgqZtiLwrmTqAJmxJCYUASolUzW6Dk3DQGNKM3eXJDTVgA/UOsHpdppyYeOK7fJcqEokSjS+hXNI8Eh4Z7KLQC/SlLjYwQ0GDMbrQssOWFYpKOgBhYlUYlAZqwarfDVVt8fQDEGygJjuQW+ox3UQiVsIkPDIkaRrel5I9LjIRLOgAGrbZAHphSAJdEf4x5PaVsqYRrEt6kYLKQn31VXarcEPjCXvBmLpSI0cQmfItVSSnZtxnn6/owF4ANWzpMr0EU9iER4Y0vMb0xU3Rvis2ML+GQEFwoGdoADMFAJQfMRSCp1AVll5QB5YyMYQe0egMMTJkCCrpB5NS95HKEx7gETJbp13f8TDieyAqRUAQFOiM9x85aYP2GRzwOkjtQZKAVwRdSJojo5JDbMxWqpJGHOmikXanV50GHAmljAqcDUPFIWI2uHFS+useQf1gQAs2jH2XzQn1j2mnA5CNJMewA/V3CoG3gncShWGrR7MDSc4vagAr2I9x7cVOsJW2dwQKCv/uCmBopmYcyE1rzoHEklLuCAAGUOddTCcgCdxx1MBtvOzp84wkZkFSXqjQzzcmjNn1JeXsVsrNA/RN6ssBEdqEsJa6EwdAX6Ylw2FwBBsxCf4cEsN6cEjCTG/RLreSZA47LfznHlZpARTMplj9TmE4Yvwamur4Ktq3QdtdX4bgM+yF2BhMSKaH7UQFdkn6xZg2ZerSztsJ9xgEFEkK1waAJOsqBADppJQBsQEcaQraAJynIxmklLrZnGSKKrJ+PzIR2kyZAIb0+HcQXUnYFvoG9Bz/hc31esFBAdFQ8SE6ACCos24lkaLDgZJC1P6iXnDfLEOoCvM4VI1uA51wbWYNA6hl9ynJfD84RO276z/zRKgELyESHtXu+on6MRvCZXSswfYqQggVPBTX72Hz7AGMgIGHXn0U9eSpp5tIpCGhEwFqyBU29qQfQK9wlsRNuohShVIeciadHV3ik3Mz6cR0s4HJR//ss0DSaVu9bwtKiQP1qR9QQ2rVAhMcty7RO/oFS/whCdswliklEsjbmn52oUmOt+1BLaqJtr0W4iihjJTEzdtEoEAVYnlqQ8ebsJepeVWQ1BFTaM6UmJVokPKoOFVZk+T2x88phyRqYUl3ZnCq7ZGfe9KcKXFrIrBnvIsmthhSSuQiUWvOnpHHHG8eCaXErrW0nan7Tl5oQ/T6WBdk4PaBekqJXySnn2gVSgUvSt4sZVT6URlHVolcdcoOPVYduqwY6dBDldKaIaWH6qqtGa7aQ+WyauRFHChls3wjnBAx3Vqi9QSVVhMNZ8seWG1VpTaXLuDDTD15a62qFR9emqKttNbXQlJVyZqditVWleqOfFojWiWsv5Kur5Wkz5M2wNXDW3+tL1LKp9/PW+YwvGD1dVpf3cen8/O0W0/pubR+Ow8xsHM1ldljWO3S1kenUrWMoVWRnkv7vOdp52sp2WSmJZI1fv16whWtnpJemnpp52nn46YVwuqpfOMABXx+yeftUc3/52uCqV6mcjM+PlZPPfow80sqXqPUJBHq5u1UWkxaQb02pn7r58oaEEob/t1+ffptmLWyKuDj8xR0ftk3pd5/PT791i5WtG5l5cPeMqj3fXyetMfSNkMaVlyM939JODGG3epLff93J7VH4Wo9bGG9qkPtwmwOX/ZNDco8Gj70TVpFN4dnppyjKFbIm8On1Czl8JU8UGNblvMgPq86D1rcqG/opd3xMdvWi1bDA06y/kGFNz0HWJcWXohhj6JVszm7SwtaXMgi4gIWZ7jctzbjWkNs5gZfXcN5LOKCF+kbLrIz1mvmL4e3d4MHmsxzGQfXbC5LOP9FLVrZQByQJ8TRFNVAVDKvpXFf1WoBS0iHqjhGO2tzu+hGJfOQmhh4GlSjnK1yaXnsUbSdeCOZtVV2qEWNh24Nyr855VVEhlAPjNI8BmKr19WNNlq0t8A2n0WjjX6dL8bMLyGV6SpZ9DtJRcMbj4F0/p2HKcyDX7J522PLSR9m6ipEkSoaBSLOcKX5G9FaX5/TJdR0G8zfH/JF3JjfEjLlvy06X9eNGC2KMbpriK1dNy8zXUZM0NL1sDejjXnNG3HGy1rNbanOIZ38Lld5R27ETiaw1viNUEc1H64V0f2AHuUytpfvbuIlm7WaJR+2vxtFancNcWorLiVZZr+M2NSAb6JXkK+WA0Sc74WcCn7GsY44rSuuKCPmqOENxMcg7v1T5kR8QI3muMSpYzrL7vFezU8UMKkriBO46jEqZ2sML97aePHuYj7rhs1ZQzmmVhJ1FpJGkeYrYWAM8nMgznKZ3/lGDVyzkPEqvHJo4ZUP3VUcMuyg9sNYHqpbQWz6OllByxuIM1gxxAorv0kVUM0DEQ/gMS6tv3xr48U7JX9jwwVYo4yPD3tX0ChRoweI07tMlbA2xOIcWea9hIEfj+/BHtDl0qTtNcSpqi6GmS9j12zF670x4KayMDpItR1GuvHHvm1+zvjMtXVFdo2/brM3Hkx7PYbYSUvXww8uiSFGuMFJ1nOQny3WDW/uzmOxpWzhWuM3How0GxnRi/VIme7k3daA3zY/k8bswKPU3KunjRfviDT++uVkxrqOOCBl0quIX4ljapcRR31d09m0ieWN7gdjm/BV5rDaAcjRhI2S21k+VJJvfKtkBx8x4vWJr3oj4uADuKo+zKGWNye5mgfqq2dyq4hvweWNVL4SU+LlEMM8kdfo5syHiIGzurxC2iVNaTUQlezsHGkXMzgq2UXfqp2xHmIodkBsF8tBJe5byaLXWK96kCds4tVt48W7i6HeHMxEVxE/AmU8a4gRN9hOQX2gZZgJriGu1aVV8U6QymRXFF0jlY9H3ZBzIJG4yRIgkQT5ddUzHUWFtPADlo4PA8l8Y8JoryGZV7w2yoxWENHbjRi4E9I0VpDMYxQn7zeikZIpGtlQ13aMiMTm+xYoXmNan8rljUzn0hiuVz7i2gjiH/AA1fLmtPHiHSOHdC7TXEHsm9IaQBzHNaaU+TBfSsMUD0T38WmV5TAQ+2v8RvS+950ZPwRxt+n9dRMXP0lvxHFfI2G+Owt58xzvAJV86xu+pGtKgPj+tddDCz8Y5eERIX633nrrLRYL4toav/EWonWNiBslHyviq63hAbEaOugPkXSciDNZ7sOV/2Lc+K2pa4UTWq1u8y3sZs2IOwtxRNxP7Jx6wKF4cpcrVn+Ip5HFlWVyK4iTWCXFzYxE7p/jRBBzujxAbbx4x4xz2QhiFsr9IU78CtNrRTwFl2EmeRXxvlxaTeQq4qwvEX1br7auxXK5AjHwdRE9+0B0hzgiuNXOQ6xAxLVR1/1WXJrroWhcjXNfInrVS0W8YMWclhFPkriIwyA9HOJsl4gCnxxxANKARBdnzkuIR0MO3E36yiW5XNHPBRVdu1y/E/FqiTq/OLr7pser1/YZXzEingtTtEDEzXmEQh1X+WBG1l6wrI+VZtIeglgsH49lX4hDuQzTVSAGpqQGD65Jzc5wT8Qn6IMYYq5xyCgwGeJkVlz0EFl9Nwj/m7om+DREAYhH6tJcj053RlZwVMRWGYjXQj1wJu2J0fGJi2kJr5gsYzeIV6FuXspb3KM6jEB0T/4K8U/HGDcG3U47JE19JYt6NfIhPjlr/umCEfce9Z49vBkfTqJ8R8aaLDkR9vTfAQOx4yzG+dyI39xFujtk57u58iN24mL4zIgPR7pzxP9DaOsq4QCI3VO372txaa5Hp/yMxwYfwfWArC9nbsKaEV8VmXz45Qj3xahrF8RnCUQ17qN5teqXiRBHiJ2QZf4xxItR2zlz14x7mL3TYrxZxFfsFRV/1smHK+Cx+HiIO6S0eZW9peRAvFeXYfpwY2B0uo8fqAbRTXyCi3HtgDMK/r8RH4z6aoH4WglnQvUa0IvgrdBYj175WHcBy3ftG3GMG5yKciIrOQg3QekY85HbQoSDi3rMnX+3rly3ghjN9ZeRmbQudtaGmWkHQMzchyvqrYxhFeonYaY5Ksr3WxFXR5nCFcRktJ+OGLcnNbNbRlxOTz0dUKfTI25kWlcfH8eRIZ4jtckhTv8yOQGi2YAG86b8ecRluc4E8RtTMhMyo/tW6Cyf8MSMus7cxU4niCGO1DZJwKhzoxyfETE6aa2I3tGi8t8e3GM5yW2xdl/oGPEt0I4NOdmNPjtAjPsWtHOdOfvIshhX4bIRn9isYIgj0u9E/AOuc0T8gZwjs1lCN2ueh/C5GXUth20niP25XK5A7ePTrhz0NewaMXAUQ5cFwZUAAy+Jfhj1GV20sV87DCqZEQc/jMP4SvrcP+LncelwXoinzdpRD3E/jO2zNxNq6Tpi5DWufdH34m6iyMcg3RkS9oM4CAdd1+bIr1+XTds52Ym6YHSvkO3hYlGix8V89P2A+7JdQYXvRj1aiv6KEW9L8Zc3tSl6AJu9OvGmNnXtWtXwAETvLHp8HsQcXsQVm+TV6C5XXHT3SIyRudGd34T+AOJyXHRrkDouTg3kfSR1VpvqdL+FtZF2iJjgLRAe8CoIVG+n+GMgXpvLtVHcyDkSjggxM3UXv3fSIJ2rHTJ3zj9G+nLU5v/HEHGpLg9T+NennjeXkfBvblRM8biIj9kauPZvrCz9uRRHingrmox3DXFwVf4/pmRtiOolPRj9EOtQXHrEuhbEwQfc+Ed4497qSPDRIAb+u2Sn3Xkg4uW7TCjEkTfi7xzelZ9ujQSImPnyo21qiiuIbnVz6j4QcajLjra5x0CS61wQc15Mj30sdSjEa6OmXfazqWiXnwDxy5H7hwb2tK9k+9o7Ug9QYjwG4mEM8mAbv/yNYGB0ou1xZ692kK+0uv4QE6iNfdluxP/9x6isLPAZ+79vrFmXC4mKcR3smSOZj5TYEFn4T8BIhpjzkvgeIt/yNU2CpyXup6l07jIl1/snrwfLYzwmklkqOU5ND4esmZR4F0gl7nshL8iNRL612sNOPO0rSMVN7QUQfpAAqTxG3+oD7bhIZfDhXYpbQWZ+GwDLOF8IY3nJZkxroqwnT/XxGXMqEgxF3k5nrmhwbarj1eTOqBt45y6dGX5PgYgYdxfkzMfq1qbqZPTrLsofI+wJMQYhJx6V9nogst90NJkVXbuOl3bBWU4vASJ20sK6i8xSXzEiZt7TW/hI9AjIvgd3q5UcZ2LqWg2Sw43oPpeUVKfbN6ci58yVnbioeH2JM0dEdyeR18iHpImP7VoCEd0f6djIOvfDVhlIC3NU92a7zNbf0q7ZdBT2VNY+PkJ0l3lnBzf8YC5GovfWW3GzePrqvfYWnd94KdmdtHt9XdxKu++NM0mSfyc9xmDvuvJwD+bixGsAataT3qd5gPwuDzv/nt4hyXyVM2iE7VfrUumqlekbCzTx6qou2+rxYyUDZYH93biswTY86hfPm9+wdfiH/G54w1bjn1V9MP47GP8djP/EBWHc/Wlh3Bl1YTw0gGkIDdTCmpQX3QkG8hnUZwjB0JxhGcMzRmCMSBmJtjvwwKUMx0ZlSMGgggG+gBVlcMGwfGCmQUzf08gbjPaHPlfrzFTfR+0ctRso1i5QP0Sdk+iLpdF9N4r/ZvDBdA1GoUueW1SkijIkn49lYJoZoz7ZvsjOGN21W9AXKrPgb5nrjEwZijOwL0gxmCi1TAyj8qvvhCnXfmgnodH8tGzVsefG/gfCU7IDRvXMmFXfyorc3IYmSMyMgUk7/SbFpg6YmGemTtph6Hv7WE74ntAu8f9M3u43KS5l2zXTR+0UvV4pqXQmTh9Ru4Ni7QzXqR2Er9GuoQF9wHgm7P3CamCU/ZiUu1hBKTmq5aDo7MTLcWJp+gKVOj82em5mbm/5HZaeySg0C15sDmxpWZbnuX+j7aGzkuJ42Nvlpe1HZsA5cO8iUpbJOUbXPezlZ9UQObreezcjNkvRsfM9PUvKM/1Po+W5TvqEaS+XWNuWNhlaPJqbZa9oe5Hnc5VwhT7dmKF7aVLajbmZnpI+dD1Ql56ba1fYXVVSLEou2czptaeL51Sx0fpkaiS32YRMxjHLP6/xnNA+L0bNp5PeRaIko3n6eFvu8VPDqDAaX0zR7l3mPnoxi36Nex5GXyuYshUVh3pnso6+WsCzxSL6UmkZGVmZN2Gp2MZIq91DyuOb15YuYRBfFOp9Nxo3TcGl2hn+vQaMyzyLGv9800fSdiKPhdpR+Nt1iEFJpmppOzFMYX0jZ5okKvMymLRrTNZxeMgD/bZba6DkuTVOClPGaHiXyjyOGhBhFPTaDcTg5IvejhXQMj32iF+mA5n3YYbsHqXvnrbeLVn91EBwfayDJ6rob2iZH2G6KPoRpuB5etmblU/WyBkyLtea6SV1K/MnLAtNP0I4edO/xronebMKl4vA6fyZhCu3eMsPbNXDJF149LC3PfJjB3iwFz/SD8OWrHiyRscjDb5P3VvrMj9jeXGXxzvephWPZaNqDwDyDPWtbGyZr7rVp5o0+NXf8mswiTJHlW1Xt1PTjvYst7SRtcSoOj0t4rQrYDpmVOZv3GBuKWK/58cN+wAT6KOozhS2jkiaKVMGLDNjl6FlfkeD1ohVQ4R5r5tAZXbRKsbljF2aU9bWRyvav3VE1RFj3FVLZb7bsDHS/hHi+VSVfBC/u/GKFrW5dKSvou1r0VJ3DDvh2nqVa21xi0PrUWKLkbaNUmPcqN1p7wZepxPd4mh2FJor0mUZG6p7rOh0i41uc5vGk8VMnMG99nKxzHQ7ZekOVqs+TX6umTkzdOaUmTXbllj1RlLd+9kdLbEhlv3R/2He66bg0pWiRbWYkAda6OgVJgYorEerO1DIKF0AhB4ZeJ02BKAwqiLeb13UoRiHC2+P2zSeK61rojjFncjWEcsbjkOaT3q+9Fyyc2Go/OYZcBMTmlBDmLrf7Zy+AWdcwlQkbAQKnNZonPQ7tQBYYWvEzaE9X5gG6d2OetZmnltEeqHpedKUlc2SnTI/GWE8UjUb+vffhzW5G0kdEVI4iIEr2xrs/Azw/aALE2tvsMKeP1F9uSzijM77qNKGkQ+vYkF0kUWm7u2+CZ9s9sx08pPjJ8tPXIiknqfut/OBO8aLzxUYGZgogJTS8+foleCHzmjpm1Eb8jSjfrKfuejUcS0sNc8MeTgz9hhfzIvZXTvi68igV/MHAgfB9mrCv1RohbWCWYauCv+1kpE+3f21Kq3zYxv4uMKgAloMWXk8JF/vVW2dDs/A2YY0XIWjwW5AL41NU0pU+MpLR54gRtG/S05fLBmOSRuqBlPhF04tOnVcx/UzH2duGdXs2Glzkyu8mBfzYiZZeLcVDnUf6IO3NEdanwjD/UXDNmQ9v4wOAOg5JKL+fPWSgJK2u/+YduUA3oRRuzAuV1WS+VFBSZrl0qrB7XhAybpOhyW0BdBeuiAACKqurbKBg7xCPQNAzE4HA0hIWO5O6dp+M1Cp0iKsfsJejhY7lDN0BD03k6XA6Byb2kDtSamhOa4UxuaQNDXNXxsOlNiaGt+8J0d0SL51zIxeh7ahrM1Wla9fRFFkYal5Z9TDmbJT4l+MYncTFFdaxqZepqfUKPiIlBCN+osNARQESOIAyLp6YsQMAGwOALgOStUxAPlrDc0IPZO/YW+ArAC2H0HKBuBoy+MEsJVrsTsqXgBZbQBQMSLv2Om/fSubDSAjQMUxoQNGbZUjWtUWWWQX4CCHBs/PAWcoWVIDBAFA1rKQ5DUHeV6SlqY5SgeAoxAA9OzJcUEwX3/CpA3Vr08jvwjquNQU+QzKh2eTfZkvhsikhdHLoYFeDCHWCTbGllrCf0AkJ44MOEMgfpG3o4gBfre3lJvPCN5adQTQWbD0DYcdQN82vYKVOnNDRjbw6kvKWjFAZwwnCpBe2Zi6dYKCV5uGI1WMAOqzCfW0AQZmgnXuTQZcGED6OHpoaZorAMgUIEtCn9AWyfHkMOOXCKePdgzDpW+lb45laV6ZIqRFUK98Ltk5ZGfITYEn7e6LNaTpPovR8gxzpOiPUMJ/rEUqCcgK2aWUuSEoM/nb6pVaZYXfTVQR3ia17kDW7qhNpi+mQkTHoQtIwjBmFxw9SCUjQw4FrzYNpBPa8RASw5VKpoJEAX4AX1YPLU3zu6nLzbB/Tw6j/wqeQ5uJcwc21Lw+E+7Dko6ryELS82B6nRr/YiiTEsYuVTHQ609xbnCE5/6C/uV5rwsKSrl/gAujRjG0KhMB1BQTfIMI6aH5bUkkCNpnWgb96/9nCILmHUmk2Y6CV5sW1wEwmGIwgLtiqzYm3LwNmuzowW0acsMt7Bk6W+/absSfe6QsXWJj7022K5zYIlNFqCyCmic9LW6SwlXQecNNrxxYJ0vK024AfC6uiEb9RwBhDF343VJWNwI4d536ZPyeedelOj8AZxdEAOrDTF+N7ouUZFJOB2CPpHBjBbc2DTLbYJ2KMexAeslWRkT/9r9T66GhaeRNA0CaZpyv5uvZMWGFm0M7DgeWvlU0mCK/2/nRdOadmbzQsFb7em3rdGrVD9rIo/dAZyUgM/KEIb8hWRoaA5SBdIoBUIC0RVVCYKVhm10vX7cAfVK7dtAKa0Z9qSglksEAn5DDl5Qa0uuhoWmkLPz2AABixvL13KjTKPeXnm14k82rvc49k4LKnppRN3lgVko17XoNFuZwyF7PH70Zjf/0QvBStQ8wNGk41TIAYjGmVPTxdYCN1OC2MUKMADqVjdkwYa8CHDdA+t2Qkd0cPPymIZJwQ2N3AeCAnhtmwhzhzIpPv9JGVDicsDCnDPX2ydoSK9tIajcyz89ws7+IP8qgjE1whbXo/7kFSVQZ6O3l5m3EbdMGLXUNIgtCepJTow6gZzY5pi7EDEgCETuSo09ySsUBnbKbg4ffNHSyFQTI7KlhVH275HY4tB1JG1H/Iin2oCstfdNuKMtDinOk546w3B/JmBAUh9wGaMEAjdiqLwrE7TQJ5A5Q7RUIndFDcasPg/TqCGC/vopmHdDoEQB6YPt6AC3uAGTj+d2EJscAd8VuDt7ZtDRNxWj1RLk/BmBITw1j4JrmJs9KO1HJoA1pjlli+U9jkUc+tBvrjpUcXSwQnvulcG2A9MsNCCi8LmiPuIkTt0bbowT3vlcHKRZA5F1v2V0DbSCVOwJIkilALmOPQbYCOgWkBkj/UT+qE2xakF2cAcq32M3gBICMkgeG+Gpyb8oyXACzObg0NE1AUFAdOIMysJ4bsmb21NAXqiLuggwU2FL6Zr1r+dSDfi4+nJ6UlOE836oxBtZuAXwiKYjI/JJsAAOVL0r7okDE1jPZ32h2GwAcAEGpyZ5CCaImAMg6tE5y9cOBGuddaVQgCQAEvTOWEqB8Bq4BABwAkHv/kt0cvNlDDU1TrmWj50PfjPTU0JkpyAJ/n7QXxZe/BUWvrSjlD+2kkMM69cqAMaLaNYD/nWSIzAq6JLBfRQxwcMgS6QHAllp53LYy6nFm7VtBAI51JTxEqtv8E20Ats663Q7VyR46tQ0ACp3H+UkSWS8D85qdTh34gI9y7r7tA2xeQ21SZhuzCwA7ZRWZWdmfRLIQ5QdEcnIDwC8YUkoNzZEaVkWeT0vTdNecE5PYbp9Cem7o/JjTXi92a2InrcWYKt9P7NjHUb2RgfqqsNJ31fxKiKExb6CsM73AgsbIdDf000pe9t9tgGTmdHJyfxHf3RraTYgBECC1xff9dtu7ZGS5ALGklgTnvHkdzaGnaQIGfr+ZpfTk0HYi/k+9frvSZoQwT2FmuX8zK7ZZtdwhtTFVOmhHWv8khKqBMbSDkKO3+JkCJoqP7wCVx+ROokGQXhqSjDAhz817rp/Kqu3EnPYIttmr3Djc9U9AfOnUYTnDJtVe/80ssudmzME6OXqDDuMpAAo2bNc0ynZhSQBqjA3RF0A66bmm8+JUDu3tMrZtb/JE/l8D2pukDqvdmEgxdux+ppyvZT2pEbQz5Og51nIW7zcjUNmvNMTKAB7Ik02nZ2ATJuZJ21HJYJTroQZ26rAl5ehSpEixhXFLiQ2QLXZzdIFIzFlIGSpuxhm9+7sLvb2Wuu1JYxxi6k1KTzZ9tgatKTN1MpRtGc4zA3VY48bu+lEHr99AfZoBUzCMQkHxEMpKC9iBrB/f5mWXINvFclSyMtdRfDTyrLPEXOKcMpGl0EA/S888KkfnSoTnBaqZl+q3rR+Msl+XsJhzruWpc20N1Iz4rhpbzaPb/uIc6Xw8Pa8b3ariWM833brHov1bP5gxa4Qz6t+t51bSsIPj/WQpSCs73Nel27EyHMnvLyLWmkC0rLRGOWOmWrIdb/XArAScyK5SUInd8U2+SZ08nh9h/xPBfJXHt/5PSYf+C0vrB0b1ijntAq9l5+lL1RtH+zoYibA2aWGe9Leis9uhKhronQMHGZIxrEUQEAi25sHBP3a32aidb1W3K0xcoHMca0jxYYtQWWTqM/zA8qBOlqJTCT5w+FpKsBkvzRlZI0MI6TtOZ7Xvancvhsw76Dj2gtP001oXQQ1el27X6QwRbiUIx0UbM2yLcDux01hRhoZW2xUpU+C3Owemn1cORUivfJxSeUOdknrvPc2RzAEhhWjDZJxi7r9M0U5K3xF6MPrld0XaZc5Ptu25Zk7sZxIWkR5U9zR4KcgCT2FDIyTc3jpH38hBgX0jfbLzHesDv6x2BeJgqBnlVqZ8163dLixVRD289NHKsew69RcB/1NaLqWEGzNtzHA6PRvYVmXWfasHkyus4T9tW3Hfj6MefNhP9A/tes995nKOVH1aEG+2AWZj78jaWf0TPo5ycIzfbGXbVvP1/5ty2M/D6Z473E0FeI/UD4QE3PvxjQi+bhtjTam0EZ9vf1fxYl7MoOv/ZIT7nl+myHE96CQLxfUuvc8/zE1pI9upEnDWcFTwhbvZqLQRVW2MQ/48x9jxyrZNJsV/+w6/9xfZdfHykJKacsSyChEnqzNSkPNiDHb27l7pRMXpc79525R+Lv3Suz4t3bs49wburX2cKtEVc2/yawbvjYIv3aarYqvrCy/9ffW6Mkbuezr5lWbQ601gfayRpGlqECbm1IBynZOAO50b53QlxNT58XOKOO0Up0p2pv5HiDnSDNvBatfIG0bNb1FY2rTITBtnI+p6DhDV5ytwkMjk3ZrY9kDGoTskI9F/ijee9Z1mCv7h69uRJe/uzaRKYT5kuE5W3JFG5TcDFh3+65nyrQOj4Q2OmDK67qNKgafKo+PpI/n8vysx3dvQl4FX4BGZnJMUeeT6XgMWpdzyyN4fJntJLf3FQapp2StZKfTIHVa6PEr+49+Fv629meZ900uqgP2lfv3cpOCzYaPtGYG3LZvkgx30B/vTUvSXJUvRR3ZQ0qULVm41Hw7W+mXgpZfSVwtG85Lij6zSFyuPnvMefprd5nFuy9i9hWHSuOlHklIAkp3om5nH7daTj5qXC4dmOqbHd1dS2k68m96lECQ7abVLeIuYOX0n3eaVbKkZt2hXEIN7rJypWr1LQUhWlURcGJ+9fGk0L/Te+kY8uunrll+VSTtJKQzJDoy2Z2XMY8g3B2y2NJvrk4zKNIjR8tyD5yc8W8KoXlIKRHLDO3xNkccVcavjvmPgDnJxuuTQVZa+eY6HuR7XWoWZPaxASqFIyvVdKxPzHNaNTs/62EbV3GydKdoBw/AJdzg7L8O/Sa/2ZlkpHMmqZ8603PWM/+pz9amaZRS65NY7yA4FDZUdut+eB7Z0yXT00a6+l8E4FdUfj0m6SSn+2Fv47aOmXG+hXeAizNqXmTDXYeqkE0am7bY79vsuOPkOzYqPMd7oR+j1VxXL6PSUv0WwmCSjbeicpFEbw9S764Xr/9f3QPVSmSOaKdOoUgpLUq51BzojPWq5m+soivx0OlVJWTCEitNk5+k0TSM27arTVDiiRd5dF/VjRt9ZwXY9E/Zqu5u9Pvu5m6p3luYVUXpPU5BZN0tJaI9jd3PbcnfxwXogryKdR7CASZldw4jFmaLcSHVZuZ8Ntp7zSy4QNPzPvZbn5wBHHMl4lTT0j5IGIPTpAAAH/f8h/6NCYx3K/gE01S17iUmVaasDE1eRTkyLmJRyG2baePTiCP2AlDfeB2E45J6ZphmVsmCiX8jbj2GAMexw1IoB0mTrXZYStZ8GhuPTVPdXc8CEPE8RrLxWi0cARxxVbgv0SO6j+eWNp/Pj4kYjXabLU6lYLJUqSncZabTi5Ub/1YxfwEDICrKY0D8UYoG6bKYebHCIAZLIXgfj01R3QXD2IIncdHFpqcqbYFTvHWbMapT9dqnP1jo903nxarWdqHmdmV7yC0bV10yY60zYO/+FFmw1YEgvnZCJFskBOEqWEwVb75IOn5a6jxKgihHjKlqsTBbz9yOgblteBwxHq9K6HOU0DB1ANKmDlrp3Ch1Ia50KLbCtXma2wVHSAtrywDoZskKtWA8tdWeElh2rnSuA/RIvo20tNDmkA4pTfKmXtBLWqh0rqX3Ll4tXN/OPEKJc65LVPC1xtiAy12HtEky+EKwQI4BgmqwxVk5DCqBeO9uqQE0pERe3btYfIYQN1DwFWwlrl3TQGfUy2j4YgyROA0C8areixIvlDTc+qZPKSuqIsjcALXUfGpyhylsp80fAU1jTjmS2QdaCamJC1pJMBvU0JCfEYPxNV6h2Ci05FG+waan7ciC1pHKI1jXXAazUgRmI0xDSQaEAtnBteHuUruB3a6n7uAC+mnVOOx64sAAyxSExi+wKgDA0gB9be4w/HY+CcIia6o4Jv8AqpyoMttWzujV3xSKvmiQbswG2U0D1QElUsjPIfd9Syt5b6gIMrKnuyhHAcDdAvKayLqxhwEkm3argNUs65wGpmQJ+N8l3qwCQ+NDSOAAIAwcB5F5Vzw7yRUlrqFs+hQMgZuofkZVxtu9H5gqsUO4b6IzOVV8YOucvwcOLJgd2gCTyj38BqMl6aCflK5XE2W8SAHAM156U8gY01C3l0NuxAQDYfsSj9M6+ikmsIPwhgnt5VF/JSuahg6W+dBcKDazlJQ1aGQTQWicH47+DQZFvSZsdlmxaJdLh3/T1WD23zRxWjKzbQ3Xz1gw376Hq0JqhQw9VDqtGXjQlklapVieHGNjt51nRetkDa6+RbzTMfuHKV0ob2jOEXT2hUEYGq64yhie0o69eH/fy7fY91ibWn69stfShNVcla40x/baWaJ6qRnbZk1aiXeXZnlYM6y1XHcI/KVCg34bYCtbt9hh/97Wdyie5ZKutylcjpgoU8CnwemoXz9NuL3+jAe7DRaJGIZYNrLRefiPsL/FRUuDuLjGDvdRhVcrdFdjRrw25ntR6SQEA;" parent="mStgi796N8Yy1ZGupUuF-1" vertex="1">
          <mxGeometry x="235.98" y="91" width="278.04" height="140" as="geometry" />
        </mxCell>
        <mxCell id="cxreZMtyCxEHCARb_RIm-45" value="" style="shape=image;verticalLabelPosition=bottom;labelBackgroundColor=default;verticalAlign=top;aspect=fixed;imageAspect=0;image=data:image/jpeg,UklGRoosAABXRUJQVlA4TH4sAAAvVYJnAFWL2gBIG/j/bVMAdY4ItW3bMNCUXq+ABgvvZhTQGpPgMgRdpI1bPWK3GnZUbIH+4oH/+bBdu+ClETGcPwGuBK0SmS4ETc+2LZsjST+mOZkqGdyVWelkbnIxM0MWMzMzDDMzMzMzMzOj9L3387zP+0V8dkQUNEVKPZx7Lwq3lgatkrffQIEbvMilaxjS7lZ4eAqaIaRmZniHmakZ0w3bAvewf0GBPZxbS8PQ5Fo0pAcathmD2c5dLL5hSllq/FIet8qLhmFmZoYGr3JVq26lhgoiBnLVTMM8ufTwFAzPRC0rFm5uLyKlbyi3DVEQixhepaXPGl0phZRqyNLwFFhq7v4WQ5byDwwzpNTkJssrr1LyNOcfuHtZuMVofQVNBc3cbqUKmjtGuRrmSSmzIDbN30CTNzGcVkZNrrzOXnXacm47pRgILxtiwAPPJqRh5lk2d79quTbD6FrklqJs26Ztp3/9s23btm0rdvIcJ1erdwgC2KaNNY2ZOsuSnDEd9fpPC7Jtq23UW0rFmlg+EMRTNmfIHxXr/9fPymK+n89n9oi7u7u7u7u7u1t0d87hZ///94fM9/9DfrgkT7MGEok1uCeSVZJLcptDn4a76wJIN6E7YBOzjEm4JpJLu52bcE3uvgF2Qbp3CySncm66FV0AzR2yu6dLZwE+jQ242wI4ZNJ/J0Oiuzs74ByX70amzhpuwq2RqM4CSFcintw9Wbo7QCqZ7Jac6pAhkdgC58ABAIBgMmfbtm3btm3btm3btm3brtMmBAEAy0a1G+5s8/9/WVKbs9l/CG4bOZJYu3t3E3Q5NeYFZ1RYzMBi8IE4jPxAHYU5MyMuw3nqKL39wMEG4iZ8+x94njqOKmfvP9t/tv9s/9lYObOw/Lj5aju1517bZm1j1arwmRvUkOVa1VZr2689t04NN1KNblLrwlurypQy66EylhW0HhFmkGxJbyCvQJ5xYdhytVVrgKD18syMVSqJW8wQsyrpKlsocn35rKOZceLGqW1X3u3WNlOtNd8alb7StKUqwd5OtdnsnEkhFL78KFpPzhgOGAMqZrWJDCYxaFhNKtpezbsN6sEX8RuuMeNsoCA9o0g26FupNpxXhs+ikBgbZmxcGwYPGdJsMOvUjAenli3it2l5d1DLWEceRohje2QhuvstVjE0lXzPswbYAHzjRkN/CGU8+JkGQ0tUkVh2CcyrdQHE5N2aCzBE0Hp1GPESx4SYeKNsMVuvnUWQGagQy7FXgRKN4QkLg5o2pBAKryTogrJBPqAfjAymYZJoC6UGC1y+Ao4pGCgAJoMeHrkUlQAFLssiIU1NXYAEg/8rQEhloiWKkwRAzMwwpY3w2ZqXrwcxxi67IGjMXoCW83bUwxlrysCmKgp3JNpCZRAngOyJYTG6qPoKWojBmHslHm/5KIx4CX8asFrVRiePGr4CMDjQeoQA+MaDpXqwUA554UunipNM5CXSaJEDZJSF6XpgUC0DJeZkgz5IqNYDeX4qFcAmKbJEMFKEFUnjmfyiDWtg0jxcqf1lwqY0sPIojO07i+EpQlq2JimHJii1zraxbqxJbg9wqJqCMQTktG4O3JpbCAs+eCXWhGEvpUlGhcYCOwUpdGmaH8B6szCH25g2o2lEzbyIF6bSRQrUkd/YSKU2VGHSbCNfS+a9dOEuqAacVdQka8Swu1NYYYrRqQSMAbUsU8ArrgI9OIqEv9fxBVXTlG6IvbpRIpAtSPTiN2tZygRjaGhmhZ1saGLj9NasHMGbrsVYo4tw10Q28F++PSbNylpjc5am/D7MQewRqBSTs+aEu9dSNbGGpAUjBqCy4ZBIoyv2yNhcZSYPE0Y3SgeSBWOZwACE1FoySiSL5DAyDXNMBF3TkiU18c60u6Rhr8K8b+NaN4edpCgZKNBCVibRkBizXFdCcVIMziYqfCC5MPpKJ5w+hhNl4GEMhehsZl4g240+v2ySXARBsyFfZ9KyedfqEqGNacmKMBx36QwsbTjTImyMw6lQS9FugCTR8QDKX4gbjcGpiVUnOWBEKOFDA+I/Iy9R64kFWuoqVGCo0K5d9z5TPLdOOLJWZAdoTkYWYZmZmXtYpgowoSmbLU9lNuS1JBbAujVlTEvST/PSjFJSiUAZaBitPNvoyl0nqrka19A+zCLxwNNqw/IjCslcPkFRZ3i16NaAxoTubuP0MTcpqCXlB9pIFMMx9NFVkKp1QywlErNoqVsICRZo0doy3prZkK8YSaw/4wNRZFqSCdA8HuUXXnNTwUhlS0/k7S8+dTlEVxVuVk01hCWygbaUNhb/MTabrlBHS+NFNQkbF0VVhM+/B9TTIntuV+Lnd1Wl3fFBvdWg2t8+A3Z9LbFyhDSzIf9hElWwJknRaUn9Ay9dPzheOXnJlxwmJGuhpxKk1a49zaLALWrivBH2G1Ya0UVNJSBL1AfQArL4j6m5KUwll4apRZcPDCkofWdYGS7GbkSS5ZeL2x5eAL4kiZuFnSj17VFPIgHLTZQwLSlLwxSSGbnhgfCMgt3AKxv0/kCZQBwAdpGRQqCiklKgkagcQoKILP5jajoDPU02BPNkC8iGWjCMALCA1vpqoo7fh98scdk2+kuNFYF2gmpAZUqYlpTNgWK/XDmEqxE0QKF00G8URXSHnizfTImuifVr2XpAdRFd/MfQJCbgrSVSJ2ukdRtgBZFqZ+MGiarGgUegXdTS5SLsbC3mm8FXSpV21jrRh41mqmMP1NWUMC1BVU9garmKko2bIsRL5dN9fM+ID+anaQNkK5kV2A2VCdSX0Q0AQMfIct5A0fFckh+I7K96IGAOY+qu5kWPRInsOqlk2oxCOogOEs288BUYLjnsTSdHDw5wKq118zTY7aR0A3V6fqBDL0NXn0HXRd6JtNbpywD58kFfBmlap9s4kRbSGg+kRBfBzjSsOgHfXkvpbx9TYyy2AF/LYoBMRP4PBNgZRc+tE5B2+VpCa22ZN42mr0v47mluUOpwQHctpn4A8BalAaiXTvY3AMGWCYD3orSc/vbqEteOATR8axk2QOQHgLypUmzjqLRcVxuX7JpEM7TWkgNWHZVk3z3grWnU/eBZJvyFMTZ6RBhvAwjUFdaU+5YAQLHwhpwqOJHMooY+ZmzDk0JMOSStYQGj7EzxnSyI17LfPlAAxgPCvrOKD24D8Na5NW14Ugl/oeFECJoNppH/fGQYCb+1S04k64hP6wNgl1SklUu2Gg6JYp2As4Nakjy0kjuRMBKzKucBQE1H07Et0vk2dMwtzdokaVn8+T2TdfRPUs9sLU3Xk51Kuz3ZI8KlE7UsHV0DErXpNYzI9+s4qpy9/3YCJQBjILaB2GEQYikBCAYSGwQU1Dqg8xJjRlSSU0dIAz5GjhkOsIYAFAOpDYJK5+iyxNgRlhXUGdKgT2MeTXNa4LTGaJvRPqMDRg0xI3EsHgyGgcwGIQV0j+i6xLgey3K1R4tc7emGJjygtKwaDA4DuQ3CCugd0W2J8T2W50qPZrhhT+9VYDIYgFotGDwGCgtE5BPRfYEJPZVn1BX0T+OetufsoITIoMQ66fmBqIz6e/RYYGJHFSl1BzTkqz3aYfqeU1aied4nFpXIq1ggAB4BlQVi8hjoucCkjipTTY/WGW9vOyooQqLDCtWOwKsCg+FXJ0PAj1oYAAEBtQXiMhrs0WuOyR1WZWqPljhnj/YYzXFqDym/wIgx2q9B7Qw8qptR2YzYZbiAoSEGjxmQfGRVDCAioDFBQgajPXrPj6DqVOnRLFd63ly9e6gtpPwSw8dotwbVM/Bobj+1x4D0I6tiGDICWhMkJDDeX4gpLVUn1BPcH8Df8xkM8ysMm6DtGlTOwK0BvekHRE4dVkaPoSCgM0FKQuMd+swxtaWapD4a9tUe7TKuXu8+2BZjXuWPNmtQPgOX1sRRy9fBUNEAFkavCZCW0GSHvjNKbag20fRog3H2aJpTS4S5FYZM0HqDSuevm2CUtmvZA0bjsSoaQIVulBLRdIt+M0xvqS7B3lDp0TLn7HnsDGmKU3NE2ZXvvaAoAKfWRF+MyFV7Luaqwv+vt8IAtIoC0MAQICui2Rb9Z5jRYENCvcFaAcvy9rahKW8eyqoweIqWG1AQgENboK/wDBsY9VxKQ1BG7dN785X/VS0MHX4GciKY7zBghpkN1cdnrkWTHn9vXGqMMbvGoClYbZUeo7DDz17TDo+6rtdJoeHu9fdX8gbDA0PElR+GAYHZCIMWWwycjrqFGb1XA3rGrGY+sNyFAXZ9ASC3jHuuqt8woQ9QvwQvfMZ88E8AAwCLDvIiWm4aoMyq5zNpxDOhR+MeNiajvoTmW5QRmr2qIUboMmxYE4ORRz9ygYcBKaqeeqY1pllO7+w4M3uACYBVR/kzWm4uX52aYuoLlB4tM9pkkbh6tMWmehEzmgGPVnqMwumFYUGjngsM8B1/GvV0q6C1L29KD7AAsOmocL7XF3NqaorUHq0w3t7541FavSOabkFGXOwqRu70ct+MDEo8794QYnQ1vp5Yq6fqoKIC5ieqSgNX8tby6ouvB9hus6AkgM3W95x5lF5rvD2PjeH5x2Ja+84SIC3d4KDned/7WkwF67bxhf2/avRTrYlHnesBjgsc+gVos8bQyeTYGlO/7/UHd28Xr9oxtUXfOZjsf7qhlf8YgWvY8+SNnvqOIYeWgw8oZyjzK/Y9ZgUK8KlUlF9j/OUZ2kGKASnDA8PNgrZrf8orqSV643z+3vtrYU1624VotANJ6YZW5jfuiYG+fb33YiHt+lZT95s3rleBPNVE8CC107We0LyzDeuofMNC8PoG8TYeMDh0oe0Bnvt1rWi3bm4hao00vUE4e/cvh8ndhWi4Awm5LeWnIsOEDAlNre8JhnuxlL59lfUEMDDwUPWAZQutDwJEnQNXv8fhV+qFTRzeUvAgLCiVHk3x1miVDbISV++Q/rE6o6S2/p+bb6sVRuYY9wTSeiiX1WF1weCEsTwGoPj27d53/PW67P2V9a7h73WLSR16LsYIDSwGo7XGZ/hudwwJG/SEU6kNG2G/MmBlODrLH90sSIpKfpTYjtu7t7njsTIMuxEmduixePXWA4HaHJ/hA8OeqLpGYL9AuWhJNE/UYSACmqfLlAVXswz1BlbkmNAHO7HDA/cJ9y/DgF0wMNH3xFZiAE30AbANyh3S648bHy9ZZW3wlpbqJflh7aOVY8M2ifKa7uhMA50XXtTlS2WdaFR4KlX5532iXm4DBE7Q+b2b0pskMsb3wU4EYeXAfRipo/Y+0o0IGsk4GzvLHKCiviXgjqhbEs9p1AQtdWUIMX734ABgrzdnmVhxNM4egR7k3OWNSgAgMDXx3Dph5ejiAgCuplTXTgCQNlxpOABa9+wCAHfW2LDqBFuq2jZrANDy8t1zlAdkxdmG4twaeObgGNej6xJ1DiCkfOagJ5CO/OqavAmG/8CqFNIEQVA8Feqc4mn95kaKXqOUyeoCIME4SU6iVGXjnCY2gFm1zg8Dtg8A2T1iIwh4ARzgBoGwDST4tdZVkOYDAgCqJNLPlSkLAXvrtTTA29wNAAO8oy64Ogsn/b8/QJclah+++YxR26eEMOoJH5X7W2XA7/4fWNMHcIx5HdBdgfyDTVJAbb/uuA4FrD/LnB0ECnejdZu5sRvdthjevWqdfTVAKwIp+bpiawB5qTpxPRn4WgSwKpyl0+OBZzQ1srBRJVvrNnmY27qR26FFzrPyhdGjz0IwdLiuvieKlO7Mr6ipNdMikKi1TraxrmTNUAHCKXcXkHc4kIcAXWE7GTnHVzXh3IhphJ2tte4KuiRPsrFWTP1m4eRv6GUmHuHGwsurnWVuDJiduQ2HnzRXSwiqsTxK76++8ZEtGVIA85MCJlWw0y3Zg7iD9mTAnKJSSM8Z/hWQpklWgoCOho1V9MsJrT3k4UapdGJ0EygwE8SFapIAqlnGYIThgFVBXvR3fgNWZ8uLqyO/CYYvvIX8bsmFilNpd+AGLZk0w6dpgGOKxhfAfiW2QeHBtWRCNaxVEQlCOSmoRyRooiNQy0QSkFaPBLhvt/zQIGUDhk8mcW7D/b+JKeH5vrbsbslZFF7XGhkN4LOkNXoIAthwlnWqgsGDhI09Us2BVBdh3lssnKvy7gUpkjKXMVEfkpBmINzzwD7ObfBYHwKdKazuh9l1E+/WLAJ5JobUiJCoYmLtGAHJL7VFe5X/koEbpcoGYF4rfJJfLs7EwAC4EC2NGx/A8PEbjjas1OHUouofvMmGLizcLSpG4URQTB7ZtVFVbJzHJ7oq4WzNXcXmmMpCUVtgEYnqyJPs5fBbgWzlh59bJyyjtY6aB0BBcLQBdQ9dCOhm8Sa5WzQ+kjSzRJ+4vtbZwDXSnRVUgJ5J978AN0VsXAOyVtESELhsog8pdGJhyPIhQ1shLJ8XVfi0ukA+kXwi9/8kPWVDkNEG9FgwdCigp0luwt2qEgQSJZK9+PNk3uh9muz0RWzBAYBVqmZk0xIX2kz/l98PTGNyzvJgVb+/T0tU1Ek9YN/iWRQ6NQWY3Rpc1cBAD1lOC9TRZoYRgO9wfl15oYC3l9buf4Dhgn2+Dwq7jcYoxwko2Y3crUoFDqJlWUcmK/2tQOJNoVIBkJYGjBN92zDZ+ap1LQhppXWzYtAspC1J2WaNll9Xm+/T708GF0C4p9Y6ih4IqW7oNryAkt5cd8vWjYG2Uu1ApsC7DgB2y/rxwmZi1R4AOmuddaFkSjtsopanfxCAt3UqqfvODGmOJoQtyCDWhYkugqv5Lx8sDNjrocgSewrYks/TumdrY8iKp0nSrkTlA9QXNCSy7uUfHFnl3YJuS2kjv8l53hv1pHX8l5Nla4U07in7Cv7uPdO1hVBa6+bdE7VqmjXqqEmi9AGQlBgyElr3ci8qPCNuEP1zDANQa8pHH1VTxCO0XnWKjYpJJSb13a0TqLgao6e+Ywxa+U78Y/Q9ZgxOTOenhsTZ3I75wS04Zh8dR5Wz95/tP9t/1YByJkbyWRgDGOX1zJbcJXZyz60AJFZyS64QSI6NmK1CYLbYiNwKQs7ef7b/dnxbNO7/2MXnWWeQW+bOZLGIdD5rWkZ06KfWWk3usjJ8kJnKBwYdMbQxeDmQYWKwEfmDjDAzhDFUuAxPMfIMjqvMs/o/DkOWRDf3fXkQIDp0vmqtJnd5bp1ge7oBRowoxjUnSY4r48WhRogGGdF5kug4TqXllAOOEN3auNFxZYL4eJ5x38zE9cDKN8/q/ziMrdeuUYz2FBvOwQeKFoLBCWN5wpBi/NIRM7ygBjcqOTTjmaXUsMIRspwwwIjobzCxsYnzVv6/XNe/qKXIs84iHsaFajEe4+5RT9JPrRJJTVYBlYmKBaNCzzagx0mS6/NHMocMA40Y1DjL0nHu5XcaBjQyHWd0sSzRds6xo+N8VWKo4DjOKOaPG1TsdcLoOKOa0f++gYnTdbnyM2tVsLknblCe+COjmZOkRrORAkYJjjNiaRgpCBPtgOM4FnScWzOct+M0z3Wl7USlcy+HiO7WMtmui2Q106fyk7YXJW1PpvGosGBpuZFFwa1Za4TWQvu1lQqOZ8Vl/+d8IqtP/Y7WdC3oU6rOv5slTtRWrntZ2N0jDCQGHiEUMHBwnGMYJoxO5gAj6NdwnDFKl0GE44xp0sqGMx2nUTS32qm6LiHnXx4hNkKbGQSAa0wk0/UcAQBIGDcKev15L4CUitpaI7Ty9muFvmlpvTVTtX48CDlvoZ9aL8JLFwHwLR/p/JYAbRlKqCkIMXektT7ZN7MBoKSnlrd6ewC0JlaHjSHDVGQCnheoSMZYYHZPeqJBRlBDCsdZjilUcluOc4jc3C/jOMOW1GU4zm1FbxPO6LokeWflGTa2VAF2AMDF0Sa2gYAPQEWqNRAAEG5nrRFak/ZrTeoN/BddNohuT9bzVRC2DWBCM4FWN6tkoMIS8VpXA4CEMBBI1ocVSVpTWUsG4LOBhGza6WgVIOwFUCZ4kOEE/YPv1XGGLgUVHWcwIzf3GI7z74RCxjGdBtHbdUnj+VLemZDOtBHahDvSumIAXmNCvJq8/klaV/SiNYUbPZX2rxgBwctWb4TWvP1aWb1ZUwOFvWQfyGAlSF/26W0Aj+DXqV4Um64sDgwSYO9G68v2thwb+rVeCJhC9oHovoGNVelal5M20i6bQJV2WjtAXQ/yNxxnUOHyeI4zuBAMXzrO+8zN/RJOZq5gdOg40fuThzZHGynJQT2fJA9Ekf7Qpqa97aWLVwEoQBVpoajZ1RuhVWi/Vlrv0wDjRhXCZY9avxauOdoDAX4T/i7CZQ0TnjMFf16FT+h87BaBCSNRnEV3jPg8R3PH6ZvrctWOc2GCYQSZa35Vp69oVOE4g4zwmH36ni/tHwi5OKKe2JnjeWtJ+gN+YjxIZHmxRqzeCK1C+7XSepNtHFOF7PVzewYHGEaY+ArADWppHhx3r6AZMBEUuzmfxkUs6piAx2ib6ThDC+FpBxxHwYd2nJFFbm4D5zpEFR1nCOExyjsPT0O0EabAxhPB2uuhvtm0GUAysbQ4m2qt3gitQvu18nozsKlKjd+wEJBvWAJoJLcIEC82FbzQ57+jB5/bhx4KLk5yCXhaoiUxNiSuE8jyEAOIcaHjfOpcwZ8QDGU4zuOZKGNWwM0vt0plg0SUSLVGUL0RWoX2a03rVaMNrYQZ65xmbg+o6SeS4kGjZAqgF7VxDR/Rx8MMMKKz44wbTycuXdvKFsbDCeODiUrRaML1QUxAT6DhdZ4s3X8holujCjG3eiO0Cu3XyuvNQF236/ncOsHXTBMrSkDrzPwkfxMl1QDh8hWWYFGPdAzX0cWBjVzi8RxniBGC3ThOO+OPTJJEZUvHmS0mYH5hmXlIUSbR2EZt9UZoFdqvpfXKH66JFPdJL4adqsVlap42cveiq5IpBRzxcs99fk90c45TaZARsi86jBCcpXCc687N/dSyJxrXdD1RTMAd0XWspICokDgs0Fm9EVqF9mul9dYGlnD580Azd0mUX423YiTQ69BHBRCUflox0sQZ6fjCA92Y42QOZuQKfpzjFAhmd5zT5eY+nuRwd6njjGtGb2cz7RVMW5Lf5fk6VBaSrqASUK+7vrUuEGHRYYQ+lete4rfSCK1p+7WSekvnBzI6GiuJwAInc5M6QG0t+vbAMUt1gc9F0uqtxCUDV9NcN3bt6++S5Xl6Os4kSbry/wDifrHrdpyygu7r70yNIFzTdfS22f/P1yXJScoj+8mgoNfdAwgDXUQLADaAvFKLjdCatF8rr9eXrV16+QAErtEdekISn9YnC9MBLEQPaau34j79lUdhSNPStcd5n46x2ibTSNgK/XfVhC3NvyFMxIMZmU7m6aL5e7pOIrkf19P5pBJJI7TyT8v6QGEg7xobEFPA9k+a8wAcubu22AittP1aAa33AD2FPRObqgA8kGk/tQ6QTo48EVPANmOUu6gNpMxeHT2krd5KLoviryoGYMdnC0vnMtBz/LhJkuOMSr5PIdftcogGjlMWDiOWea+u+zgwN5cekXRubijxmUY0KzlO/dxcDzkAOdYMcz1MVKTdf9EmyT5ZlvVGaKXt1wpIvdLaEps3StdRkpOlK7R6K0tpm1tL9MR34Fy1I81SRiXNJowOzdik8Gbm/EmSvKxo/p/FY9qexsMiU0H7Loyl5MoIUsoX/gfGbx5gKcli9p2PVWa6VPsfuR6QmzHcTG6sifvzhT/Tv8s1STPJxqkHvF/wy+fGnpRHM5j4mT+zVgVSZusFYtTfh1irVq7niSV/d+uOhInO/R/H7kXn/o/jqn5qSOz+JxxF4/6P46p+GtvZ+28nr4ur6tAprqqbsLiqzufiqro0tKjG9p/tP9t/O0lTNO6pNpZ/j12clSlmdG17Y/eic0+1av0f37XMmtOdzaTSe/Go8M7uLD0qWWvwOKbNg3spCiJepUveuwa6Rkf1gKV29IPQe7EHyC8oSIpVo/EAWmsdW5eVukRXym0XntekaWQp/37LQms9GT/eaGW2zNKdG0tV7nNLXWOLVp1gE1MbvVvlzWRQ7PO4O3BbwrURFa6fqT+MOvKmkclABNpOml29r5v2ZCxr/jhpbhtAym7o64f0h9Vjr/PTf2rTpUoAwPsIWbE/si51fpVw1Xrruaj2eZyHuycWAorpv9whUFWhaWS7JoCw36wnY1mDakW0b+NwsmFjFYCwDUwFm3YBDLsYQEpsTMbTSuKV6gzkPZ7WJ/LBRbXP4ycF8g1VIPSENjeK1ZpGbnl7pj0Zy2HSfNnaX4f2TXuhwFvLdr0ovCC+GXA4v+44k3ePsTHySM0t/PN2zmlQ7fN4aWB+l2yANvuYDrwXpaaR62qtzXoylttQJSyyH1xr7RXmhmNAqlAoo21pbExwAUnkElBduKLCLsoXnvdqECS9PPrmQJi29NxOqWnk+i5mPRnLpQpNiBZp3VxsFFmnEG8Ndp/Y4afJlAKzUvO7KF943ksmE2MPXNWcpOHilthSpZWaRva7mPZkLOUXXjKFZL1waer3E7cHIGMtec7E2KQyAbg4aiYX5QvP28vGherdAG10Cr6ZzgZuUSs1jaxFfdRomakB4Ut8e9ik1qsBgIQLSYw9SgZWHKnDuqhfeN54+PRVoVDr24Ld6wZhX7aWNo0cBfoA+6UOAFuT1D/IogDWr2ORTxREE6ou0FX9wvMWABflw9RanwpwCvHgWkubRo4CfggDtzRgazFDiiKgY+zRNxN2V6TCxcKF501AQwj/uLRB4Ly1ljaNHAV0CZDpUlqF2mMyqem+ge6xR6k2AnP6s8YXYYOFC8/7CAAOoLXWmULjs9KmkaPCf/EBJZ83PgDb4A8Elh/buvbQ5SEci/xF3xlo4oGuFi48b75LpvB/m4B35iJtGjkq6J4+OqhPamjuFa9J+151rIsPh5RJI6YQVqYaBF2KGmQCba1ceN4ieLNIAf8AaK61VmoaWWuVnoxlzR9LkQX9Df6DX9Vch8h+t8Y/LEG4Vr6xHu7OqVI7RtWF5233X3QUpzVqiv92u807ah37Ub5Lz9/fnFgK8kudHffjKwA3et9LLPEINuzjxSXpnAEa+2ygjkui9V4nzXWDwbrTZOvYlTiq72794LH778SPzj3V7ijKTw2Jzj3VxlHl7P1n+8/2n+0/2387UcXIX7ZVbPta26J+3bP+4yRyPw1H+qpFqRG/apE4jIz4dYtKDSPrmv0fV+EaIg2j0joW9HEZ1rq4j0qROI2cvf9s/+2wVlx5nym2PKXTd5f5+FUGAzeLJ1z+Fl3yr062sxdSyszGry0f8RR+5r5KSntUpXYq+hELOgCptj1Em/Sryn8XKoq5tC0eceZ+FnwAKgWI0nDKeFFTa79X5LFOrB9pdt2X/yVLh1PUhRNHzmfEnBap5SPnJSqdmdKf1XgKPrKZvuC3kSW/29753Mqm93pm9x4rgeL3xKtfP3R5RBH3n+sK1X39Zjd3kUbXfcJlb7fEkvGdSPlrmt33RZ07bqlOWW9KvjuIz/rn/b2Um1wsxMyhNzc5en0fFi/zLoLRw8t5GG/in8kMixsWC4W2t/tuWWCJd1a577JbSlnxn1jclRVb9pfTXvOPm5CYtzSGb+Lf6et+u3zBJ0/qXv03m1Doh7tsaOGvq7roQhgIYZDJyLVUVfAlZTF5FU3Sn/4NiTPvs5BDV2qGy4s4V2+lAUvyZibGXzxa+GDMbGjBvIO9d4viL3ov9UGT+nGnN3Cr6g19nrE8b/q/8Ta3P5WneeZX/Lxz2dCiP+ZQdCEMhCh4/B9Vu40Yvy3p9t1W+CPxeuWvD2Rimvx1/rps0inEzPwqXu89SdZTl5qfzE8XfWEXeuyWfK9JKQ/cwvqPuk6v98PCyHm92YlxiJlrPG1Umbrl0p/UdgVOSXemVBwZQ+pPRAeTYvPjgXz6M3No97SGF3zqVIP5tf28ig5e1Pk60pFe+88r98h84krKSv7ELKeuNG/BsQdK+Tp+XamrI5Sw4cW/r+hZx8ytokoy9c9ShhI3ydY/ScXzsWZ9R9SLKv4vrZ77v1Jtf0iu8TmJ6pfHc12lXDa75iuHeZ6/JFmzO3ho/5FoEvfYI1S7MaX/6N6EeaXsbV0k8oqedsxvYXoUE7e7KrmGp4gGEqt8ldrh0oqZ5cu8txuJdtyVbqQMucMemTkj5m3abi5v+PfZD5DpYOI8lKxnzn+OeT2iqrPUedEX/MVLTFcXX8JVCWvp7/8FnTid+/M6dJ3WxDa2vV7k+XpRF+p5Hrw9rSWH+Zs3ud2d9/XO7S2tiDI/YIaIy6ZWfotj7DAP+PG2tf25vnm9FSX7/Ih1Ztno0l+r9va8D113fwMzKoxr4fCN2eXcI+71GZhDe1Oy3Z33N/hpxkZyptvEsm+6dc/cL/Iav9/0Y+Zur/vd8hkjj0Y3CF/7L6vHIt70/2PmfX7jFszMoV9PB+EbML/Bz3Mz/+rzsZGdz6jupd5M5rrMcEXiBNa0sDeTvIZvN4+l6onOI4eNvIFP8w4uFxtiMbNIPb+jlzf574SNdHsN320zzMe1YHjXb7kh8+EryQ9tt5C7EiWv8s1edT3qxV1WiIW8xTHqIPzNdnutP62Z5vxLFmOaN/73VJwTfswcscqtbn4ZPiLz4nKPdWsspP0sqt5/N+Z1TNB0BuaZDS/g2LmfbBdMUE2HJSV7Sr57JDIZSzyfwxeZR2Ax/b6x8rh2C9sVOL+e+VpVfHFm7vaqv9yde/88Zu5XiWLmvI/5CEdl5s/HvKuXdJ2FMzDzUwmYlzx4nR/+lZi5RXUlrZj5I//JP7TnxZjf/PSoqYrqP/tgOcw1tuc233fvzRz6J4bnsf/GzKd6JS8O32vP58HML/02lExr3Hf1MV/MJR88h5n3GXnfCy64DHO3BRdc8E9Xki1lmbn3uXybf3nE9szfS2Fci56dM7/G7zYqOjF3enyjgMlymKczSOYvxi10+caG42LMX1E016MJG5D8Cp92Kp7/0TMzP3vEKPVUzP/K1A/KofPXU+0xovNCOUbYyMKHodXMfMT3HzHyCp90zAsr2R9zzuWTN43MwzyP6sPfg3ny6mTS/2nzqIxr0XMVzL9MwR9i5g6SfQg5Tan9RQwfz+XVf7slFeyUeS7R+6dVNmGeR8WpmKcTDjCEeHJTT8JMLPi05qzp78p0f0sJczcVTbsxv7xHR9k+nu3ueih6N8yHtzSuxe/hiGoreW/kz1mEeqwc5qei/pC4os5b3/oinvu+G/PnE7SSbUHyfOaCIeaLlbx4upna5xv+Y/ZXj9oixMwtenDewm/g49zItS7cnpnbd4iYpBtziYLJmHPEPTNzMZ9A0X0xh/6QlXHt2bOwTdBI7oWeORnbD2pexy9L5ltT0IT51Xy1E2uYnPnLUG9XshpUnR48ZO4neNkPQqwyh3kyc++fmQ8mpB/ztBGl//xlujGHM+GQz9CC+ZKCgs2t/Xr2nb6Mu/jhr/jZgZmfSMEjMC8WETwp8+t5t1BUtRszP9LLuIO/pDyuPXtu2n/xdhdm5jw1r+rNjrmTgjf614z5/4hmZn5lLw/yv9lHY84RdpjKvLAzTeRaffru5p6NTfJZImqZhVkea0Lo0DnMH5Gsp72e98scJlH0Sl8cpC/dz858VNX9ZC/oxImW3n5XHdTGtRC5AXbZqZrHYQ5VNbc480Kia2W+aTd4QFFvJdvdeXd5ve8Xkpxhk8u/I4qZgWV2sxdmrL7uivngxqI1xMw5nRa/1lOF1ByM+fV/nIsaMc+jvPf10M9Zg0mmVxrXwuL+pb6i4WerqZ7D/KTmjsT86r7eijoxP4IbXIm1D94uWVZbz/FYRjbDy398pMvR3sy990kfVrNT5ksT3T9zEytHiva/08MzM/9NlXEtHi6tw2fZ3q778zx4+5Pf5nPI7NTS+2+aMIfev6mbZv4Y4vsTQsz34gb/3tofiSzJ3NcN/irLBs3wpGSLpDozP3PE8DtYzTtizskQTElngb+YecmIYvY2JfO/VxnXAvKwzDNGTPJt2PBZVX3XEPNijy9q+rDtN73qOxLZysYXM78janrm9hE34M9BVVN8omtlnkH0aEGpK1ryJiXTVA7Lt02Q8fmYa5Nh573R0aIo0o9537L1xJ8tHA8vMVFdLOMjMl+ayrgWkRc+2IxyL+TUKcewa/Vqvwsz5/xN6h3NQ3eHzcD8+cja/McLMT+1W3Q6tOGHM/MlqDgMMz/nMxre7vSh+5I6PPNcf4zY7QzMB07L72c/EjPPSDdGntMwWUjVq3izZw59A/J6+XzMU4qL6L9Lnf/MMxsVNOr2XZqK75Y8L4VxLSS40/1KVqCu5XjM7FpT/noWyr1/sgV21FbTHbU9M91ttrsQc+h1vV2+gsfd9Dtn5hbP6Bacc7yDfdMpmbl3U6UjRd+UmT9f+LneQ5N+zAtLzczMXONaF3zqfx9i5oYjOm3y8zdyhp13YqYTbeQEzPyo3/1jtmJW9YwtmPkrTf8ezifEHPpL4jKbD9//4/1sss45pUsN5s+X9x4+YuGjMvO/VBjXouFt/XAmWexzbX/3/dAlSVd87q/2qy2TXMUW13+svsFYks9HF3+TdWMhvfcfcYeP155pfuT7jih5xoOzmByTI0V77seS7NucNf3Qz6K78mdmmp9WQ1Fk/71ZSDdheZ5BtzN/vcQnDrGYvxxUGNfC8dD0/7BKptzCuo/Fgh/tPfxIot88+35GcWv/I+eQifu5SiRHZMztTeZdXdH51GDmbgd/WvHoz7UK780h7wNzfYXF2xta3P+jRUzyWDf9V8lU1u0M5GUw40JmmUwuVONjnItkd8iufyS71h1PEBSEmRuZjJ6SX0aGJ2d/84mVTjtdiJnDxOJk1J5PDWLy4wQtjGtxkBF54WfbPOaedOPLftxQc/XPMcuzZURM8vi/eJ+P5tZ3ms53+fNZLO9p7+WKmioW9FjP9ovFIX42NsviESupNEtVq+Pj0fb5i003qnf7jT+r2ZgMbmXT+139perWxrU4+HmRyBNNb2Kux/kBEYVEv/cvR5ccei6zfFPP/O5WMfEryKpW/2sVLDndZ1jf3D4S8QCx2u/Er/pIzJ02tvRHPMT9i3/Qfe352TsY3+Uau+Wxibs13eSTf5a4qp8cefb+O3v/7eQlFxan0aVhXFVHmXGP3a/qu1zFtu+1L/yLm3BhK9/+tWsdR5Wz95/tP9t/tv92oojRprsdpcr/Bg==;" parent="mStgi796N8Yy1ZGupUuF-1" vertex="1">
          <mxGeometry x="540" y="72" width="214.7" height="149" as="geometry" />
        </mxCell>
        <mxCell id="cxreZMtyCxEHCARb_RIm-46" value="" style="shape=image;verticalLabelPosition=bottom;labelBackgroundColor=default;verticalAlign=top;aspect=fixed;imageAspect=0;image=data:image/jpeg,UklGRvQjAABXRUJQVlA4TOcjAAAvP4JfAFWL2rZtGOv/v9PLGhEToOuTaTCXoAfgAuR3ECtvECV0U7JAL9Vz//96SXLzXMSsZWZmxuEZ9Y56VprtVg+Pdpind3aYV90jPdT7//1+/9+trqqu27JdpgknNQlMYnWnYkjL7AWxegJBL8ycU3EHVWFPJgazPelcH2a7w4rKjKIbdqh9AmLWHEWmyhZSPwGxzPY1M7PHzMxe6PsUzPbb7IWeSBBWJ0tm0UyoPj4dlmFSQT8BUycT3uBGoieAHV6DoJLacyyYdOccY5+zZk8bUpoKXedMvKFYqjGJsQNB73HGMNlGHZgES1+zqCsQS2klog4WesFsVzLnXLOXWlBm9zk1Ya/Z3ec47WThH3QHV7Bk9j6B9jlltvsR1DntUE/gb7aXKnDYtm0gyftP/PeN5KBtJEmOUribra6up/tPC5IkMbGTLRzviBMeHDII3TGsV/6iGv+/q03p5f7D3ZxzzjnnfUP/few5b5oFzu/5O2YdEsXQR6qDCmgBjcMeu5LUQg5FUAJDA8wqCni7WIdEZSwUkCWKDrKK/q1h1dsEswUQSsCjUgUUkDWSJrDYtwOGGtZSBA3kDJoCth2CSn6p4MxQBA3QCCqdNugAtWoLINbweh5HxkIJKFCZKhAQAwAgmMy2rWzbtm3btm3btm3brmMgwbZttW2UKPpilnH+c4r19KJWsJiZ7f47bNtGkjir+0rYu3MB1wU6+STXf7n+y/Vfrv/epRvXAw4CD8/qORy7u9Apxu56q5VboKbcPJ0bXy/IXG5wOATbZm6LV8ft6EpkUTKHe1AnHMK6SYRLFsSZabmB3oxo7Yye1fJR5C4hq0UwcyVR8zlhvgwL4OvvWbvhsHeh5sb7MszumWMSzFmO7BlmhJ12ylnZo5iGrd8nzHaMnwMH8cebRu0KatYhR00ZZJ/bWtzSjhySDd4emBV//z9xxzkq07Ewj5vtuAFGAst8yM4+BKa0khmzO7dGAfelS/CXtb/3In/ijkM+zrKnYGUmRIn69d5gRQYtyxJozx1IzMCuUvTvPVo6cHOzGEpvZBP8xVlCOlrqrcw88dv03fEKTPHmQXsWlg69BZbOIrFpmiNs9wt3H/YODwkfaDdQ5MgSmB0FfVGX0E2Vblo2SLLLIgvGLIQtrUCAJbKYcyQHOBYZH+RFX3Jabky4KbxhoBqSEQccz2AUG+KmsrADkP2GkU6+T/BEDhhG6hlOUaWVPUGAFYmLFhKgPriLaclJ2VdYYklyc+USl3PsKqx5apwf3VhoNTewNBGJPchSS5LE4mQm9rqByBkaG1fIqgmNCyR1gx7b2BaLjP+PUViHNrREYeWa4ccq0J4rq3Ic2mlsnM6p6u3Rgs1QLskPglUOLOAMVqZnHT/NxfiVMnD0ZO2Gh8DFuNyoyDl5WA8lB2MDBsPEBmCyhJchqKkQkbULFDjeHhjimAXBvEhuEJSgJv8MIk2jUDONVO/NYtgHbgZnba0l8H3C4pKZJuAYxdru/Vb8PrNfc1s5D2eYH48ypvYMOhh1D0eZVs3gVynAn9BmPiIri2fwWqPHH+FDb5HZJVzC0RtoIR2l0NepJt0SXelBBpIvIgu7MHbzfcNxPu25Su3eJJckrdA2WdtzAxPEzSEFEJWgcvT3HE8hOZPss8Elt2TwdCISHg0VqtJdbUTkrcEbIyLb+nBW2RL8mEjYA+IBddAgcgyiPlbKYbYjlTuVjonIlaAVVp0mJiJZ2yZA2tXjA144p0ZaIjNPdEllA9sDhLWzqlnbw20txcmtQb2yiY5UX4jDRxR5Oji2yIeBH6ZvA9tDf22L66yIhiXLmw0BfHk3JwZWyJJjI575YtBZlCSg0BEVx1QoUBxWwCYizw4PKzIKf2doNYvUQkTksCyQfMh1v7ijAl7jEk581sqKCsn6Dj85ZpBur2cbgd45OOKZLiYLZNVY6O5oUDRCs/o6HiaqtzO0EhbJTUny5a214znfEiW9dxNESjAkqR7NygbsTzhK9hqMYjeDAGabMkSOZ/HEaJTpLyZ94ACO4inhgUVkvgzHvgcokM1gP9t5EVxOnHz5cdeJAtFCmQAzoP0INXnZhsISOg9Pt+OGP3Kl4vr7/tCmXXFsk6MjnnoxizaJiIyBWjFpKeHqilZY3aGqgpXLZKIifWFA0vzaqaAWvq88CLSY9HuTbZBfRXvuEPCgbALY1nEJ1FxW7DTtinGyK5/uHztV7NrXlFNZPHHBPTg+DFQY9YNERETOELjtbbUnUpikFzBCeUh8SnHSZobtZWfwhiqPNi1RLPtQWEL0D11p4N8bIY6DO5p7tbTY93sRJ6t+b5fZ3+f4gbs8tlLG6SVHkiNsf7S4Yr78lCOrwb8lo3A1RGeSlzt2Ai5r+pFDc8CvdQx2lDP5HgomHLs9B/1EukLyQe71KYcnmU5mYv2pHWlK8D83EflAcA05w+vuqqfYe1C9B7H0ImoOd194H759+W32x8ITtDJySMe9J/oo2VyMpGYgatpi9QBAJVCq7GvpL73PkETLFBEZU4uWNjgT+6ZF2OYSYpuWEk52gZ/1yIq9C0XnnYK05vfmft9h/v9Dvf8H+9df7ZFyUD4QjCiYCNQ+uwRcBEr1Z50eE8Ev+48xUdNHe4KVthh+llrZ7DLtSLymUlr4P6YBr2wb7d5kSnKKajverTWLdV4T4FuavMaNMGLNLSt/75FeZKX3HDmmhPfKDBWrxD5iWILOF98wYqwz73WlA2Vhwi8c7ZIozyyZJP3XKjBcVzQv+vKSQdb63qc+8n1Lfk/meV9AyJT+WOQsklkSaSHTLZFiDL03lCCyxve5LUd730lW/96s7630vRf50KGTygcucvNe7kIyUQq1N5EMlaAy+SmsMllCqGzp9kVEOvkk13+5/rtFM2fRuzh3onFLbQlaSrbNNHZ+7uEZJ/bcz/3WoZ4BkPmWWyOdgb8NDR8o1ONjXjrFwC6JDXYrrN+aFjFvdK7boJFVqYUu/Q8iViIhJNjA7s1bPywKierLKVvjuoE2seXXeAXF/Dh+F1ueZu0MJTsHrETiSYjH4wXSP75xzXcrJS4SOf7EJKS9sOoeGqE9N/HYsmm8AfLj8RcQkVPEffyxreaakFHCxg34SlEzP1YahKh5abU1+HIkjZILmO5If/k65D8sEJWDOB5qpmpN+NQ0fB3UREU20EuoqxRhs9YEmNI3Un8Jbk1kCzhHc02/ODyl1lr+6eoKN0+SDEuXvcMKklVVVUMDoHFcVUR6kh63Yc2VOsN+RMB/hK79Il2G+41nqOoHrXBVVZ70hF4H2MYGb5rwaio0L1Y9yjUWRsKsSe2hd5HrAq+idvmQ2NqZcofWrvMCsK3pasdyJCxOqtQmIj6/VuTL6z0eX+WtTVf/NK0TUKReKjLx+wxnzKu5aNi4DX95vQNvoSMhjj1t4BO62VDMaeAcIodiYSOL1d4eZpch3GpjX0Xe/sVbS5u0RFualdJHdFOoNXyqRYFytd6V6AhbF75h+/xVF/iPG0xpz7GxyGckKRZitVA+oiAWotk/K60RlhnmdoBqikE1A7WXgjALG6Bt0uPdJVWxYahxVDPW6rjTqwwASN5FTSjmuWU6ia3+ZuVUGMyXKdc+cBOulBHuASb+7/2Gj/jF445rELU8bll3/If1oTYWFMSXSIEnkhZC3+ebfvm0rRVyzOwSlBu8NH6hYmeIWJiC56aMRrUpsWMa1txfs9ilUez4NjOMDAniSZw+SHdCPm8iqwH0b2UStgrEbF19m/riETmr3oaulLRYuDq8vYsocfXjUhzNsIn6HWNExFO7N9Z8RP1p+PgBQWxFUgY5Qf0BWf3PfjtR1OAp3aWqyFZvcTEkDeOK5XWHO+2CLwuDiuUiSy3wzDYeGV6jr9lpoH9MDgqTChkF1xgikftLDFQPORyZLRTZmk3qRCo/I1wpHJgpS8KoR06MUdddDtyJqobO55SlMJaSY8QtgxOAB/QRCZcBPnAXYkMmANFhJlUekMTLV8TKtPoTNSIHcAC/9otfA/A9YKoEAzEUjpv1AKM72hOREp9Cd06BrauLe5rny41Ao/KJk4WtUS/wOj++OLq6Gn8N4CGlh+EIwR5FmQ8T+5UxQKm5FZ4I5E8qlkAOCmuBwXKlXj7gtZnHdzQQXZWopdxDr8M5YX4jePrY6lwoVqmsazLtc28rweSL71FUijnhvBoxJtZcbLrBs55VnHz5vkOl4xGiqRy5yr7rdaUkjb+k4Nnes9LYat5JcnS5nkNX3XHLL9spj5HTh/XJZM57ErjpFnrpGUpGf5bNRCSN/XfZcr30wpHsnoSSzUQEjX3Pi73kCiWvIZFoMxFOY69TV93yE1xyjVLUkJhoMxFWY7dPueR66TVIac3igs1EGJ1dPrLkeekNSnnNUrzNRGidnChd8OTrz6W3yNU1y/AF0DIZhNTZntI5X74cl9yj1BQsy9tMBdpgW0pmPf0AlzygNOQrbSZC6GRF65TnpQ+gjdm1BdgymQqESRa0TAT6Di59BGnNWJm1mQq4ySa0jIV+3JGxGinApslUwEw2onU4LF9tlz6jdCWsQQqIaTORASNDkZe8ovTGrMUUUNNk6iQ9IgORvKHrCO2LSJeEv50OzY7Uc+6dck4X1mYOuc9VvoAMRqzHdKTQe/SEufvHBXJIWlmTnH2T63EdCq8Jf7LUgktmQUF76/ou1mJ33n8et6V8hYtkPQeF9d2znnU/cWemj+D6WEeCtw6D4H+wIw0jpluhPCwcOzjjN7EeG6s0zYVQU/L2Wc1A+mQ5r7Aqe4yfjAds9r0pgWHUf3vYIP+4cwJrQwaCV73xCjmJOuClvs/93JGOlldImZfmbLXrLpkKrv8owUGcZRpprzPY6w3PXKy0JS5VhhBzbnjdjpV2UuS5qTjJ61e2pl5NgHCWeDgIq+PuUVs+JxMt3+1Xddy0k7wgtcVTrjfLGY/tqFsSHrTkWas7dpPYuvE+uAcxxF1xk5uIqiZmVuham9VOn0uZWVX7Bq6p73H9qfMeOX29m+DQXzdagoi1QpjDNZovx9MwNh6/CxG5pe3i+NUt0RBxaohPjjxlZwiLHGFbHYXEaYZqd7lPe46S537dZ47fmmLzieBPvpJRzV2kwZtYL+YetFnSFVJRf+lqW8XOn+sSHmKvMDKQf9thSBqe3aQMNRUi+xE+SsZG1AYPc2GA3QVD55r8mGMzAGjU2mO9NOBj7qwXnoiaMjH3oM2CWEKQsvp/rxPZ9bMiQcGc0R3IfQIlT/fW+tvuq1ogeIWqqsGyp41H9JAi0vMuYGBMgXdUdADnDCLl3qStCm/pt6mjiRsEpfWRvFsDxZWg4stL4RQwvFH7Z8FpuoTzRvAa4tKDNsshcZFL2m28dmCP84WEJulSjrNRjnr8iMvVG+O/rojSvOrZFQl1d6y5UGsA0VlEPBqalL6fqjRl4uQ1qNBtgV+s7PltJC49aLOafSS/udxVvZh8338kPEns2a/jAyTObVbOrelDKvttigcRc34bJSJ1evOhQt9RCb9K67FWousBB3Ase9BmLQ9xbq8Xjteu2xFJS+AJIhOG9wK+jkmh1lhGpA8TFf304+Rb/aIekzYrIV/kpaFSlMQdZ4cB8yIno/B1zUDXX3tLNj1os5SzJKvXM/Taeev3EqxE5HIJqDTYCh5Zf+bzFNuqHt9DiaMlgiZVV8e3xJSwaNlvWI4AlOzs3oM2K1nPGUN5jF6640rwRhQ1QUu2h3qDSjiFaiqlRs2Qfs1tNhp8a44CGKNKO6aT8BF3xWgRU/r9sInAJex60GadporOGo5Y30ngOrviPqGLuiW2mlUlbGE0XBuI+4dxFMJwRXcc+w3wyLZ3aUw1DLHqQZtlmio6X0vkQnQ1QSpcPqlYM0r5oko7ajSV9lyh4xXg/oweEioDLuKTLyJx/Hrn4PlqJUC9edVHjOh6VoqT+4T9CKsetFmpqeK2EjP9l5ATGTp0aILegfWKXf0iSIzrVymx+odF6dVZ45M+KBSRrXzG5kn4FB4l443uD3p/efmIDSj2KJLQ5+ucJom67jhYankVkcG/ja8j0mr2vENvRU7mDaoU+eJl+EOsetBmsaaK0KlFz3auakb4AD4ELsoD3acBvIHK7QKQ/7piFGkEkhBXSHcPnOPcFer61wE8H3hIkVuDC4iU65VcQKx60GatporYKTHqt7MpP035HI2xPpCo1u9FC+lB1Pm9xBdIQOO8aIw2LOU6UVK4sQclmz6dfgxgQo/ezzxY2mI2U1vTNgJ+r82dH6kowlvXAqTXFbsetFmqqSJMMiLVVp9597p9Iy6/y9asfY5QXaVYpW6IuCefKaJl8JbimsF5hWLsQZtFmyoi6V43NaXDf5Jz1SWcRsLK3/CZQ7Cmij7/drQ59wl5ktVSAR9m0H2OHADl4RCsqeIA3BMPZzn1E1FT2z0Ua6p4S0/ifnlKyYIpeLqKXmWnWTccojVVPIvLF3nhXP+bKr4Lpk0VwQiuUcXH3agiGFAdVQx1+r5mg00VQ56+r9lfU0Wsdl9jd95/LvxpThGx9sjj2syf8diXa8oirV6zkaaKUO2+Fm+AEu8Cdsblaw+dg7KAgfTJPpoqQrX7egAnCsRfIB/4vjaPiBVAtPOofGBpUpgVZBtNFbHafe2Hf/ywiHRPErWwGaS7SCAfsREWdrOC7KKpIlq7ry2RNjUlvxYqXb01TNYe7WJtMRRkAdlEU0W8dl9F9ew2lV1CHaGk3tPjZEFzeWKN1YhLGcUZ0+o1e2iqCNXuq2uzMl/cNLXn2EwMeUj8GnnmeGml4hPGJ9coXjpe5jpiVxEZMo+bgPQmhSJOTbe3K+bp8tkuY1q9ZgtNFVHbfRWRcrpqjA91g0z+N2wleXon6s5667NSurqO2FUksjpGSf5gZXPsHAUeMmNavWbVpoog/u+1h80QqR7ZZaYTCuDcIg1MFhEZCupjYh18INcRu0qsjOS5m5xXlFMVMOr+mmsyptVrJm+qCK5+kA67GgndTergAsp/cfGriMixAYaKyH/Er3Efsev9wTaittf7iIr/KJJRrV4zd1NFcPVM4HcXV+eGepO+MA2r3O5rBvRiis84EanlEuI+YtdzMFnvKHIKRzIsklGtXjN1U0VwVZbDs4u7reAXmdwnHASKyNJE6wm87SWYLNId6sV9xK5xyudFSjyOr9eUUa1eM3NTRXDV9HI6R1t4XRhh8muhWZ16gzwZwWpF7hUGyxTybUYc6GPIdobNMYNavWbiporgatoMvo5YpZH8sLkICQh7bCBpbk8kSg9JMsJGPqe5iBZDB86MavWaeZsqousSMD8WO8ONY749Bdqho3MQ3W9Q+rv+MMovB3U2JjBQ1Gg1ZWCr10zbVBFdbWb4MGIpksC7nPZglcD78oruEOdh1Z30OBPFxnD9RyxNVQYZ1eo1szZVRNevhdIb7xuqJCJWM0syol9NbMLTYdqxL9FraAD+t5XiKN79haXmSiX+eF1GtXrNjE0VOW0krpTghSm+uOcVfENN31c0LRG052KO2wO/0IoUeEAC8O9cl1GtXjNnU0V8+UYWfV9ly9Yo4UhuN9j8cnCAOL48VIjliF2//BdKAtHaIXpNGdbqNcs2VUR397UwLy8iHSCRumLRkgVavb6x2yvLd1QR2N3XbDMF0NpO4ieW5luX56gisLuv2aejuKnQa9hxQ+vyG1VEavc1XE6RWS+Wd7ZU1iQvdC6vUUWodl/DhSPWQ2NcrVUlKfKdy2dU0QR2X1c877aEvj96lw6rGVVkNfJVdEef4FxWJR1GM6rIQbseoifKK0pz9vsDJjOqeMuLbozKGxQ6Z5XJjCquvDM2PNWqyYwqivexphHRZEYVN917UxMe5/4EvFHF6Z87vlnI1wf35LEJXe9fk4LeNYhrDvoBzHS7n94bflPKD3h7ti5XA7ubilrgY1zq1PXx1ZTYNrg/nWXA1cBvlmIxUx/SUcXY9DVoMJ1lxK41FDPM2b4rfmzONXAkmWlKahA3AM1k56rzGj1z2eaOmLr/x/j4tfuN3RyxOnAsmWFBfoNPG9ueYsqbLmA7XpaQjWHNZTU27xo4Hk23JkvRN/SU4pKFbHBmuNy0PbpZpluMXq3ZSms7f1UzR9fSTH+1Mos9/vFntOp6HdIbHn/25w7r7n4LYYzNvAZMRrOM2VrIDTxwNa2CJQ1r1FUrLGSCMONlmYqSooU4G6sW9KzDLWHWs9DawCB1vQ5pzcLKtYOq/71PiNp7XEAzbdV31R/SXs2wJDsBqXSmOiKYPx7NekB65VMSmN9Y6bbGKZA1TQIYkbHmMW3pYlzWsBRnjait2pqj69Nv7y1vSFc2JmPZ+MnPGUkpZ/m8to5mKFq0zvCcSqVm8zw8K6uXlJIW1ik8Qy1baVezhtna4oCpMDapyyv02nUHDeRjsqdpjvRCnl4LvuecseQs6feassyidnRKyQIVNg9CaqbP3ViOZkcmhrx7nkITurxBr0M4clTROMWdXiCu1kDvOWcwaZnNpILMHAaOUoOR+nOsYXRvZu9egvNmZjNeM4mlmOuIyrb8gEa/MOl5An+MKm0n+1Lz5GR3yxtNR7e62WywFrO041JB2YElq/IEuix3rFJEUf6c1cZN2aVpmqI1TgUzm4CXT/uQTqdbV8Mry0XqDtBtzXp8xXsd3ssncQzapmYGc5XFgWNRI7cqe5zDzSOqm93nqEo1qGvOGVC/8fGuFsjCJngtbRHLdUFZmILzAr8ALQsYdwOLUJL/ZqkUWs6vea8/ATUljpUNaj5vJjDZ79Pz2PFvEnS7cbYc1lhPjNhnawtLsVbd3zNnNJkzITjf7vMWrGQgfRPVSrvz5w3k/EuatQ2saFMBV+OHDjvnm33ebqzD/SE3g7rxYpd9s5MvUuGH/qHUUe36nwx//fXXn/mqmbfCMcv673XHv8ZqNeBJoW29SfuH6tLw+zq4taNKugeXfdLt9rX/sJZyfNw2y4BdQjIvyjkDDwD/XoI77sQSXErJ+tqLRdZ3czaKlL3+48M81uLqJ6VIuVNHsYECW1xhC+XhOEGig9t74EgWT+279m9IZzEuZZlhwS6mGffnnLH3E35Cvg/569sdd1rDBFLS7lwEy1Tjdv2HYJibBFuklCT5BhYWt/BvUlquBjNXpYAFnmC9Dm26PT24Nzt5TNa8biHXcDeYYBZcvvIOFDUHcfUfKoAfr9j89w04y9J1C7hZ46IHvLjqS/ETLDwJsF3PR1ZsQSKlGATrdmhz1MSNC0RaLeSec64UpGbzYEBQqy1HKQo4ufZM6m52AyfWnyPX4WxuqNXTnQG0Ow8LOBc/VDuOAAsVVYdNJSHl86RBGQYfNZVaqcB6wx65y2h3zTBM9bVZ29gdd6pbqv4E4Jg1lXpuEqpZLTxeiGkdjmPUoHxeOGfqDxWxhfJE6C61A2dRtTvzpI7A6u4557ngblOfl6Ie+r8IbxYSms3bYQ6jejx42qBs52yJXWCZ6ngQC1+bbjNetOpfXD1MVWdycnWHbs4KA1MPB19IsbZhh1RI6GxQ+u1Onupx/m4UPb2NkvUCebNZvb+2Hcr6O9DtxKlUTyz81CLyd0zN8DysG+3Ob5ZSinnndx1wlnW4breXSpV2W8Q2p1KjSyi621SqF/zze0nN0pXC04aGHu6dAYoAHi+4406U/MaApwW6FfHyFlKPh5rk5krFdwa82DI1tQW831QqoVar1JB6ryXa/XzmVGgolfp2q5kXA4q+dhdn93qYKbdntMO5fp/2091258AmWHq3yrNjHXTR10ul3vBXenCs2racU3tV91bA2VIPonivC5WEUvxwpaQeS9aXh26/7HuqT8ch4rf0eDjtkNO5MMb69yRfN4jyu7gcuBr9cM3mKnZcL2XIvQxKmRIqrqZqZc9vyudNZeqEPorYZoI5fw12TGV4QnsfF/ekZ3jutOKRG9wvvy/VaUUqNWt1+WLH95rqVCKI5Jqkk09yBbThPsTuQyeeeWf1iXbimXdWn0SHmVnWTgjzztoCzS637jAzg9ppYd5ZQ3HYZkWyqaXxQcxFQKzYbXNtsjM+hAbdDVwHvuoyd6zm8bHWxo+alDK+5UVq18rQ+IFETDPLaio7dPZpDNwHvuoyd6w1hvGxauOPGkh1iWEorU+Hmqix7JBZa2ngPvBVl7ljNY2P1QCmbBs5KEzD5cQws6zGskNsdgNfdZk7VtP4WE1aI2UfK0mDdrVb2SE2u4Gvus4d60CSYRd+RB+mW1jlVnZozXrgq5+RpBgtR8RFoyjeHrqrjGWH3IIY+Orq2KyPm2rV7gL8IvWGXMoOsVkPfPUaRIPSoLpzqFePO7mVHVqzHfiqMneswfBr9HHbF6szy+padkjNduCr5rljtaGNo73JGZS4OrOsrmWH5lwGvmqeO1Y7tJA1UlcG/UWfWVaXskNz5oGvus0dq42JUfCBzygihpllNZYdYkpk1M9NzANfdZ071q66rpo+zZ09GDhIREwzy2oqO9S0QRA/tw1+4Kux5mJxiXn1L14sYp5ZVlPZIadX2SBh/XsjGRJ7nQbyLm7Z+iHHybuskFz/Sa7/5/1q5+ceHpygZpe1U0Hf11sjHZygZgc1lO77mlmF6H1fgxVpMjeAtTM+xAfdjVxO55VI3+v40DgowHjCrkyzy2rq8Rra+zS29fUX2dBDSXWTmE/YlWF2WY09XkN6I1wYT+fV4AQNfSW8qc8FxHzCrgyzy9roxmtlz/7q0+BVqn05o+YTdqVd7dbj1SaUqH2BJQIR4wm70rj1eDUJhbAcmRcpgf0Iwwm7MjD2eLUKW2HKlYwn7Eq7IZcerzbhVeDxL6Il5nbCrs4Nr+vW49UQGE/nla/PlYHFCbu6T+ji2uPVDhhP51UZ3lD1G/cAXU/YVRX0cO3xageMp/OqL5T0Exm6rjfQ5YRd6bPL2sTGqx0wns4r+bWAnwTSMTGdsCvj7LK2dOM1RO/7ajydVyJdynygfFBYxHTCroyzy9rCjdcQuu9rkKfz6iKDw6Lny/cd6jK7rC3beA2p+7528kmu/3L9l13Igc0zKxpyZPPMioUc5zyzjpyGVXPu5iZVXr0plYb33tfnGVSqNf20vLCxlPtzuzMvHRORgnpDRmYj7/vIec4zq4cef3ih+kY0U36aphkmGlShJ//pYoZSTmH0lHBLItIZUyLZq5zVeb7ySFcHUlYLtMWaaj39NJsA3Y3yJ0/ulQ+QvpyutsmkUedV66kxDtg1+xvGaw7rPF95+luJep4MHl/hi2sqfaDCQGtKFM5bJKO1kqkCHt94zoB1EywHXJqVh2Gaw5tn1qBJLEqFrdfE3x5e15WIPLJPeVgTNdyx2lCTlrzgSQWNlsIJ5scxj0k25NfCtxSRKvOLg19EaKm/bnQGeAHGWjrCFjaSSXgxG+E0cdUmJIvVUvKZC1syD9h13XhcffvsW5fGn9vwP2pAZpfDm2fWDFEcZaqlOBNEtoQL2JBr4KkG+7ym4gJ4Z7BlHLBrcYk6GaRDovhdDNWEJkREREZnhJ6j4HLqah9Iy5X0OUT9hCJyHcqtXB3OoIh8S7zxIhJL8C1juhL9HnRXGAfsOsYjuaU0rZDh2U3VhGrSnQOpLgfmcV2PO43VTqZTWru5g0Ib3xe2UdUklLMXdHskawwMmWKxh3U5KA0Pg0nGq0M0pq30kUXTVctzK00d4N8qBTVQbeMDQXdFpXw3/CFSnGScGHhdtVzAZg/910Ic2mIJAY3q3//YtSVwD6Lx3SdwOKKYhoWNLDwdFGua0kyR45MflpoMWq0CSI8PBX0a0YYMeADHTqEPnZVUwwLJQgVR0cgpYCOPDyQZpifw+BIykvEeJXa2xhi/0lVPnwkG0oCvFF+cIZRbINkzdCS3By9tJU1pfy33AJ/G1VQoUA0N+FXAIWFwzAN2vTXYDBpiejWhn3CUaNjC5nB20fNhSITNKnvDFxITmUAv5WEsGOJRph8dr5a7gI31akI7+n75g6gK9TRJGWkx6Af3p/hpF7nIlvsN9T8sCflDNMrfINJc6aKsUI/IlTzvt5kG7PrWkF8p8mHgQUSvJuQj5XiFrr931Bduz+UIeINIFaZsUCNmIqKw+72jc8NUw4BdqxL4fZ3bboQC0zBeQz33CXfhan6MX2j00lAlfQHAL+kzKU9EFzGqsfOUMNUwYNeB+j+YMR5eRK9mcKgji8dtwK7W1YQ6OsLJac4za0dYjnOeWTu+cp7zzJozSY7qPF918kmu/3L9l+u/XP/l+i/Xf7n+y6WOAAA=;" parent="mStgi796N8Yy1ZGupUuF-1" vertex="1">
          <mxGeometry y="61" width="225.59" height="150" as="geometry" />
        </mxCell>
        <mxCell id="cxreZMtyCxEHCARb_RIm-47" value="delete contents of 3_Ballot.sol" style="text;html=1;align=center;verticalAlign=middle;whiteSpace=wrap;rounded=0;" parent="mStgi796N8Yy1ZGupUuF-1" vertex="1">
          <mxGeometry x="20" y="221" width="190" height="19" as="geometry" />
        </mxCell>
        <mxCell id="cxreZMtyCxEHCARb_RIm-48" value="select 0.4.17 version" style="text;html=1;align=center;verticalAlign=middle;whiteSpace=wrap;rounded=0;" parent="mStgi796N8Yy1ZGupUuF-1" vertex="1">
          <mxGeometry x="251" y="231" width="239" height="30" as="geometry" />
        </mxCell>
      </root>
    </mxGraphModel>
  </diagram>
</mxfile>
